<?xml version="1.0" encoding="UTF-8" standalone="no"?>
<!DOCTYPE svg PUBLIC "-//W3C//DTD SVG 1.1//EN"
 "http://www.w3.org/Graphics/SVG/1.1/DTD/svg11.dtd">
<!-- Generated by graphviz version 9.0.0 (20230911.1827)
 -->
<!-- Pages: 1 -->
<svg width="2021pt" height="1048pt"
 viewBox="0.00 0.00 2021.00 1047.78" xmlns="http://www.w3.org/2000/svg" xmlns:xlink="http://www.w3.org/1999/xlink">
<g id="graph0" class="graph" transform="scale(1 1) rotate(0) translate(4 1043.78)">
<polygon fill="white" stroke="none" points="-4,4 -4,-1043.78 2017,-1043.78 2017,4 -4,4"/>
<!-- broadcaster -->
<g id="node1" class="node">
<title>broadcaster</title>
<polygon fill="none" stroke="black" points="1095.12,-1039.78 1016.88,-1039.78 1016.88,-1003.78 1095.12,-1003.78 1095.12,-1039.78"/>
<text text-anchor="middle" x="1056" y="-1016.73" font-family="Times,serif" font-size="14.00">broadcaster</text>
</g>
<!-- fv -->
<g id="node20" class="node">
<title>fv</title>
<polygon fill="none" stroke="black" points="241,-944.22 268,-931.78 295,-944.22 294.97,-964.35 241.03,-964.35 241,-944.22"/>
<text text-anchor="middle" x="268" y="-944.73" font-family="Times,serif" font-size="14.00">fv</text>
</g>
<!-- broadcaster&#45;&gt;fv -->
<g id="edge104" class="edge">
<title>broadcaster&#45;&gt;fv</title>
<path fill="none" stroke="black" d="M1016.38,-1017.26C881.27,-1005.26 439.56,-966.02 306.36,-954.19"/>
<polygon fill="black" stroke="black" points="306.94,-950.73 296.67,-953.33 306.32,-957.7 306.94,-950.73"/>
</g>
<!-- ls -->
<g id="node28" class="node">
<title>ls</title>
<polygon fill="none" stroke="black" points="1743,-944.22 1770,-931.78 1797,-944.22 1796.97,-964.35 1743.03,-964.35 1743,-944.22"/>
<text text-anchor="middle" x="1770" y="-944.73" font-family="Times,serif" font-size="14.00">ls</text>
</g>
<!-- broadcaster&#45;&gt;ls -->
<g id="edge103" class="edge">
<title>broadcaster&#45;&gt;ls</title>
<path fill="none" stroke="black" d="M1095.4,-1016.92C1220.58,-1004.65 1608.2,-966.65 1731.75,-954.53"/>
<polygon fill="black" stroke="black" points="1731.75,-958.05 1741.36,-953.59 1731.07,-951.08 1731.75,-958.05"/>
</g>
<!-- bn -->
<g id="node48" class="node">
<title>bn</title>
<polygon fill="none" stroke="black" points="742,-944.22 769,-931.78 796,-944.22 795.97,-964.35 742.03,-964.35 742,-944.22"/>
<text text-anchor="middle" x="769" y="-944.73" font-family="Times,serif" font-size="14.00">bn</text>
</g>
<!-- broadcaster&#45;&gt;bn -->
<g id="edge106" class="edge">
<title>broadcaster&#45;&gt;bn</title>
<path fill="none" stroke="black" d="M1016.4,-1011.12C961.12,-997.64 861.53,-973.35 807.09,-960.07"/>
<polygon fill="black" stroke="black" points="808.2,-956.74 797.66,-957.77 806.54,-963.54 808.2,-956.74"/>
</g>
<!-- ts -->
<g id="node51" class="node">
<title>ts</title>
<polygon fill="none" stroke="black" points="1169,-944.22 1196,-931.78 1223,-944.22 1222.97,-964.35 1169.03,-964.35 1169,-944.22"/>
<text text-anchor="middle" x="1196" y="-944.73" font-family="Times,serif" font-size="14.00">ts</text>
</g>
<!-- broadcaster&#45;&gt;ts -->
<g id="edge105" class="edge">
<title>broadcaster&#45;&gt;ts</title>
<path fill="none" stroke="black" d="M1090.97,-1003.3C1111.61,-992.98 1137.74,-979.91 1158.77,-969.4"/>
<polygon fill="black" stroke="black" points="1160.21,-972.59 1167.59,-964.99 1157.08,-966.33 1160.21,-972.59"/>
</g>
<!-- dm -->
<g id="node2" class="node">
<title>dm</title>
<polygon fill="none" stroke="black" points="824.32,-728.22 853,-715.78 881.68,-728.22 881.65,-748.35 824.35,-748.35 824.32,-728.22"/>
<text text-anchor="middle" x="853" y="-728.73" font-family="Times,serif" font-size="14.00">dm</text>
</g>
<!-- jz -->
<g id="node14" class="node">
<title>jz</title>
<polygon fill="none" stroke="black" points="741,-877.78 727.5,-895.78 700.5,-895.78 687,-877.78 700.5,-859.78 727.5,-859.78 741,-877.78"/>
<text text-anchor="middle" x="714" y="-872.73" font-family="Times,serif" font-size="14.00">jz</text>
</g>
<!-- dm&#45;&gt;jz -->
<g id="edge1" class="edge">
<title>dm&#45;&gt;jz</title>
<path fill="none" stroke="black" d="M841.92,-748.56C827.26,-766.51 800.33,-798.56 775,-823.78 763.7,-835.03 750.42,-846.74 739.13,-856.28"/>
<polygon fill="black" stroke="black" points="737.18,-853.34 731.75,-862.44 741.67,-858.72 737.18,-853.34"/>
</g>
<!-- ct -->
<g id="node45" class="node">
<title>ct</title>
<polygon fill="none" stroke="black" points="769,-656.22 796,-643.78 823,-656.22 822.97,-676.35 769.03,-676.35 769,-656.22"/>
<text text-anchor="middle" x="796" y="-656.73" font-family="Times,serif" font-size="14.00">ct</text>
</g>
<!-- dm&#45;&gt;ct -->
<g id="edge2" class="edge">
<title>dm&#45;&gt;ct</title>
<path fill="none" stroke="black" d="M842.55,-719.94C834.63,-710.23 823.57,-696.64 814.21,-685.15"/>
<polygon fill="black" stroke="black" points="817.15,-683.22 808.12,-677.67 811.72,-687.64 817.15,-683.22"/>
</g>
<!-- ft -->
<g id="node3" class="node">
<title>ft</title>
<polygon fill="none" stroke="black" points="1020,-661.78 1006.5,-679.78 979.5,-679.78 966,-661.78 979.5,-643.78 1006.5,-643.78 1020,-661.78"/>
<text text-anchor="middle" x="993" y="-656.73" font-family="Times,serif" font-size="14.00">ft</text>
</g>
<!-- rx -->
<g id="node59" class="node">
<title>rx</title>
<polygon fill="none" stroke="black" points="1047.56,-568.14 1005.88,-568.14 993,-607.78 980.12,-568.14 938.44,-568.14 972.16,-543.64 959.28,-504 993,-528.5 1026.72,-504 1013.84,-543.64 1047.56,-568.14"/>
<text text-anchor="middle" x="993" y="-550.84" font-family="Times,serif" font-size="14.00">rx</text>
</g>
<!-- ft&#45;&gt;rx -->
<g id="edge3" class="edge">
<title>ft&#45;&gt;rx</title>
<path fill="none" stroke="black" d="M993,-643.63C993,-636.98 993,-628.92 993,-620.42"/>
<polygon fill="black" stroke="black" points="996.5,-620.59 993,-610.59 989.5,-620.59 996.5,-620.59"/>
</g>
<!-- hc -->
<g id="node4" class="node">
<title>hc</title>
<polygon fill="none" stroke="black" points="205,-444.44 232,-432 259,-444.44 258.97,-464.56 205.03,-464.56 205,-444.44"/>
<text text-anchor="middle" x="232" y="-444.95" font-family="Times,serif" font-size="14.00">hc</text>
</g>
<!-- kh -->
<g id="node31" class="node">
<title>kh</title>
<polygon fill="none" stroke="black" points="262,-372.44 289,-360 316,-372.44 315.97,-392.56 262.03,-392.56 262,-372.44"/>
<text text-anchor="middle" x="289" y="-372.95" font-family="Times,serif" font-size="14.00">kh</text>
</g>
<!-- hc&#45;&gt;kh -->
<g id="edge4" class="edge">
<title>hc&#45;&gt;kh</title>
<path fill="none" stroke="black" d="M242.19,-436.49C250.07,-426.8 261.2,-413.14 270.62,-401.57"/>
<polygon fill="black" stroke="black" points="273.17,-403.98 276.77,-394.02 267.74,-399.56 273.17,-403.98"/>
</g>
<!-- kg -->
<g id="node5" class="node">
<title>kg</title>
<polygon fill="none" stroke="black" points="1293,-550.33 1320,-537.89 1347,-550.33 1346.97,-570.45 1293.03,-570.45 1293,-550.33"/>
<text text-anchor="middle" x="1320" y="-550.84" font-family="Times,serif" font-size="14.00">kg</text>
</g>
<!-- sl -->
<g id="node6" class="node">
<title>sl</title>
<polygon fill="none" stroke="black" points="1269,-877.78 1255.5,-895.78 1228.5,-895.78 1215,-877.78 1228.5,-859.78 1255.5,-859.78 1269,-877.78"/>
<text text-anchor="middle" x="1242" y="-872.73" font-family="Times,serif" font-size="14.00">sl</text>
</g>
<!-- kg&#45;&gt;sl -->
<g id="edge6" class="edge">
<title>kg&#45;&gt;sl</title>
<path fill="none" stroke="black" d="M1320.82,-570.61C1321.95,-593.4 1323.3,-640.45 1318,-679.78 1309.18,-745.27 1309.32,-764.08 1281,-823.78 1276.38,-833.53 1269.85,-843.3 1263.47,-851.75"/>
<polygon fill="black" stroke="black" points="1260.82,-849.46 1257.36,-859.47 1266.31,-853.8 1260.82,-849.46"/>
</g>
<!-- gd -->
<g id="node43" class="node">
<title>gd</title>
<polygon fill="none" stroke="black" points="1331,-444.44 1358,-432 1385,-444.44 1384.97,-464.56 1331.03,-464.56 1331,-444.44"/>
<text text-anchor="middle" x="1358" y="-444.95" font-family="Times,serif" font-size="14.00">gd</text>
</g>
<!-- kg&#45;&gt;gd -->
<g id="edge5" class="edge">
<title>kg&#45;&gt;gd</title>
<path fill="none" stroke="black" d="M1325.44,-540.01C1331.59,-523.22 1341.67,-495.64 1348.99,-475.63"/>
<polygon fill="black" stroke="black" points="1352.26,-476.88 1352.41,-466.28 1345.69,-474.47 1352.26,-476.88"/>
</g>
<!-- zd -->
<g id="node8" class="node">
<title>zd</title>
<polygon fill="none" stroke="black" points="1255,-656.22 1282,-643.78 1309,-656.22 1308.97,-676.35 1255.03,-676.35 1255,-656.22"/>
<text text-anchor="middle" x="1282" y="-656.73" font-family="Times,serif" font-size="14.00">zd</text>
</g>
<!-- sl&#45;&gt;zd -->
<g id="edge10" class="edge">
<title>sl&#45;&gt;zd</title>
<path fill="none" stroke="black" d="M1248.96,-859.34C1258.09,-835.5 1273.69,-791.2 1280,-751.78 1283.4,-730.56 1283.7,-706.13 1283.26,-688.24"/>
<polygon fill="black" stroke="black" points="1286.76,-688.15 1282.91,-678.28 1279.76,-688.39 1286.76,-688.15"/>
</g>
<!-- gk -->
<g id="node16" class="node">
<title>gk</title>
<polygon fill="none" stroke="black" points="1359,-300.44 1386,-288 1413,-300.44 1412.97,-320.56 1359.03,-320.56 1359,-300.44"/>
<text text-anchor="middle" x="1386" y="-300.95" font-family="Times,serif" font-size="14.00">gk</text>
</g>
<!-- sl&#45;&gt;gk -->
<g id="edge11" class="edge">
<title>sl&#45;&gt;gk</title>
<path fill="none" stroke="black" d="M1266.3,-873.4C1298.2,-867.88 1354.54,-854.33 1392,-823.78 1456.74,-770.99 1489,-746.32 1489,-662.78 1489,-662.78 1489,-662.78 1489,-449 1489,-397.94 1444.82,-352.85 1414.33,-327.82"/>
<polygon fill="black" stroke="black" points="1416.57,-325.12 1406.56,-321.65 1412.22,-330.61 1416.57,-325.12"/>
</g>
<!-- bs -->
<g id="node17" class="node">
<title>bs</title>
<polygon fill="none" stroke="black" points="1359,-372.44 1386,-360 1413,-372.44 1412.97,-392.56 1359.03,-392.56 1359,-372.44"/>
<text text-anchor="middle" x="1386" y="-372.95" font-family="Times,serif" font-size="14.00">bs</text>
</g>
<!-- sl&#45;&gt;bs -->
<g id="edge7" class="edge">
<title>sl&#45;&gt;bs</title>
<path fill="none" stroke="black" d="M1263.66,-870.22C1309.67,-854.79 1413,-811.58 1413,-734.78 1413,-734.78 1413,-734.78 1413,-554.89 1413,-500.69 1400.32,-438.16 1392.34,-404.18"/>
<polygon fill="black" stroke="black" points="1395.75,-403.39 1390,-394.49 1388.94,-405.04 1395.75,-403.39"/>
</g>
<!-- bq -->
<g id="node25" class="node">
<title>bq</title>
<polygon fill="none" stroke="black" points="1047,-805.78 1033.5,-823.78 1006.5,-823.78 993,-805.78 1006.5,-787.78 1033.5,-787.78 1047,-805.78"/>
<text text-anchor="middle" x="1020" y="-800.73" font-family="Times,serif" font-size="14.00">bq</text>
</g>
<!-- sl&#45;&gt;bq -->
<g id="edge8" class="edge">
<title>sl&#45;&gt;bq</title>
<path fill="none" stroke="black" d="M1219.46,-871.03C1184.97,-862.03 1117.2,-843.6 1061,-823.78 1057.51,-822.55 1053.89,-821.19 1050.31,-819.78"/>
<polygon fill="black" stroke="black" points="1051.84,-816.62 1041.25,-816.09 1049.2,-823.11 1051.84,-816.62"/>
</g>
<!-- xx -->
<g id="node27" class="node">
<title>xx</title>
<polygon fill="none" stroke="black" points="1217,-728.22 1244,-715.78 1271,-728.22 1270.97,-748.35 1217.03,-748.35 1217,-728.22"/>
<text text-anchor="middle" x="1244" y="-728.73" font-family="Times,serif" font-size="14.00">xx</text>
</g>
<!-- sl&#45;&gt;xx -->
<g id="edge12" class="edge">
<title>sl&#45;&gt;xx</title>
<path fill="none" stroke="black" d="M1242.25,-859.37C1242.6,-834.47 1243.24,-788.54 1243.65,-759.94"/>
<polygon fill="black" stroke="black" points="1247.14,-760.07 1243.79,-750.03 1240.14,-759.98 1247.14,-760.07"/>
</g>
<!-- lp -->
<g id="node32" class="node">
<title>lp</title>
<polygon fill="none" stroke="black" points="1103,-800.22 1130,-787.78 1157,-800.22 1156.97,-820.35 1103.03,-820.35 1103,-800.22"/>
<text text-anchor="middle" x="1130" y="-800.73" font-family="Times,serif" font-size="14.00">lp</text>
</g>
<!-- sl&#45;&gt;lp -->
<g id="edge13" class="edge">
<title>sl&#45;&gt;lp</title>
<path fill="none" stroke="black" d="M1224.01,-865.54C1207.29,-855.09 1182.02,-839.3 1161.89,-826.71"/>
<polygon fill="black" stroke="black" points="1163.81,-823.79 1153.47,-821.45 1160.1,-829.72 1163.81,-823.79"/>
</g>
<!-- sl&#45;&gt;ts -->
<g id="edge9" class="edge">
<title>sl&#45;&gt;ts</title>
<path fill="none" stroke="black" d="M1236.52,-896.13C1231.14,-905.84 1223.24,-918.01 1215.74,-928.2"/>
<polygon fill="black" stroke="black" points="1213.04,-925.98 1209.69,-936.03 1218.57,-930.26 1213.04,-925.98"/>
</g>
<!-- rf -->
<g id="node7" class="node">
<title>rf</title>
<polygon fill="none" stroke="black" points="486,-84.44 513,-72 540,-84.44 539.97,-104.56 486.03,-104.56 486,-84.44"/>
<text text-anchor="middle" x="513" y="-84.95" font-family="Times,serif" font-size="14.00">rf</text>
</g>
<!-- rf&#45;&gt;jz -->
<g id="edge15" class="edge">
<title>rf&#45;&gt;jz</title>
<path fill="none" stroke="black" d="M510.19,-105.04C505.36,-130.46 496,-185.83 496,-233 496,-734.78 496,-734.78 496,-734.78 496,-779.94 510.05,-795.19 545,-823.78 583.44,-855.23 640.65,-868.1 677.64,-873.31"/>
<polygon fill="black" stroke="black" points="677.03,-876.76 687.39,-874.55 677.91,-869.81 677.03,-876.76"/>
</g>
<!-- xk -->
<g id="node54" class="node">
<title>xk</title>
<polygon fill="none" stroke="black" points="458,-12.44 485,0 512,-12.44 511.97,-32.56 458.03,-32.56 458,-12.44"/>
<text text-anchor="middle" x="485" y="-12.95" font-family="Times,serif" font-size="14.00">xk</text>
</g>
<!-- rf&#45;&gt;xk -->
<g id="edge14" class="edge">
<title>rf&#45;&gt;xk</title>
<path fill="none" stroke="black" d="M507.2,-74.5C503.62,-65.56 498.94,-53.86 494.81,-43.51"/>
<polygon fill="black" stroke="black" points="498.13,-42.4 491.17,-34.41 491.63,-45 498.13,-42.4"/>
</g>
<!-- zd&#45;&gt;kg -->
<g id="edge16" class="edge">
<title>zd&#45;&gt;kg</title>
<path fill="none" stroke="black" d="M1287.44,-645.9C1293.59,-629.11 1303.67,-601.54 1310.99,-581.52"/>
<polygon fill="black" stroke="black" points="1314.26,-582.77 1314.41,-572.17 1307.69,-580.36 1314.26,-582.77"/>
</g>
<!-- dp -->
<g id="node9" class="node">
<title>dp</title>
<polygon fill="none" stroke="black" points="1703,-300.44 1730,-288 1757,-300.44 1756.97,-320.56 1703.03,-320.56 1703,-300.44"/>
<text text-anchor="middle" x="1730" y="-300.95" font-family="Times,serif" font-size="14.00">dp</text>
</g>
<!-- pq -->
<g id="node18" class="node">
<title>pq</title>
<polygon fill="none" stroke="black" points="1797,-877.78 1783.5,-895.78 1756.5,-895.78 1743,-877.78 1756.5,-859.78 1783.5,-859.78 1797,-877.78"/>
<text text-anchor="middle" x="1770" y="-872.73" font-family="Times,serif" font-size="14.00">pq</text>
</g>
<!-- dp&#45;&gt;pq -->
<g id="edge18" class="edge">
<title>dp&#45;&gt;pq</title>
<path fill="none" stroke="black" d="M1727.19,-321.04C1722.36,-346.46 1713,-401.83 1713,-449 1713,-734.78 1713,-734.78 1713,-734.78 1713,-777.18 1735.16,-821.91 1751.84,-849.58"/>
<polygon fill="black" stroke="black" points="1748.85,-851.4 1757.11,-858.03 1754.79,-847.69 1748.85,-851.4"/>
</g>
<!-- ql -->
<g id="node53" class="node">
<title>ql</title>
<polygon fill="none" stroke="black" points="1684,-228.44 1711,-216 1738,-228.44 1737.97,-248.56 1684.03,-248.56 1684,-228.44"/>
<text text-anchor="middle" x="1711" y="-228.95" font-family="Times,serif" font-size="14.00">ql</text>
</g>
<!-- dp&#45;&gt;ql -->
<g id="edge17" class="edge">
<title>dp&#45;&gt;ql</title>
<path fill="none" stroke="black" d="M1725.78,-289.46C1723.39,-280.66 1720.35,-269.46 1717.65,-259.5"/>
<polygon fill="black" stroke="black" points="1721.09,-258.8 1715.09,-250.06 1714.33,-260.63 1721.09,-258.8"/>
</g>
<!-- ss -->
<g id="node10" class="node">
<title>ss</title>
<polygon fill="none" stroke="black" points="1855,-728.22 1882,-715.78 1909,-728.22 1908.97,-748.35 1855.03,-748.35 1855,-728.22"/>
<text text-anchor="middle" x="1882" y="-728.73" font-family="Times,serif" font-size="14.00">ss</text>
</g>
<!-- ss&#45;&gt;pq -->
<g id="edge19" class="edge">
<title>ss&#45;&gt;pq</title>
<path fill="none" stroke="black" d="M1878.01,-748.61C1872.15,-767.17 1859.84,-800.51 1841,-823.78 1829.2,-838.35 1812.55,-851.06 1798.33,-860.38"/>
<polygon fill="black" stroke="black" points="1796.85,-857.18 1790.25,-865.47 1800.58,-863.1 1796.85,-857.18"/>
</g>
<!-- mb -->
<g id="node37" class="node">
<title>mb</title>
<polygon fill="none" stroke="black" points="1817.32,-656.22 1846,-643.78 1874.68,-656.22 1874.65,-676.35 1817.35,-676.35 1817.32,-656.22"/>
<text text-anchor="middle" x="1846" y="-656.73" font-family="Times,serif" font-size="14.00">mb</text>
</g>
<!-- ss&#45;&gt;mb -->
<g id="edge20" class="edge">
<title>ss&#45;&gt;mb</title>
<path fill="none" stroke="black" d="M1874.71,-718.62C1869.97,-709.39 1863.66,-697.12 1858.17,-686.44"/>
<polygon fill="black" stroke="black" points="1861.41,-685.09 1853.72,-677.8 1855.18,-688.29 1861.41,-685.09"/>
</g>
<!-- rr -->
<g id="node11" class="node">
<title>rr</title>
<polygon fill="none" stroke="black" points="295,-805.78 281.5,-823.78 254.5,-823.78 241,-805.78 254.5,-787.78 281.5,-787.78 295,-805.78"/>
<text text-anchor="middle" x="268" y="-800.73" font-family="Times,serif" font-size="14.00">rr</text>
</g>
<!-- rr&#45;&gt;hc -->
<g id="edge21" class="edge">
<title>rr&#45;&gt;hc</title>
<path fill="none" stroke="black" d="M252.29,-790.06C230.44,-768.38 191.87,-725.47 177,-679.78 163.38,-637.93 170.12,-571.55 196,-504 200.09,-493.32 206.7,-482.67 213.15,-473.75"/>
<polygon fill="black" stroke="black" points="215.76,-476.1 219.04,-466.03 210.19,-471.86 215.76,-476.1"/>
</g>
<!-- rr&#45;&gt;fv -->
<g id="edge24" class="edge">
<title>rr&#45;&gt;fv</title>
<path fill="none" stroke="black" d="M272.59,-823.99C275.16,-848.41 275.44,-893.33 273.41,-922.09"/>
<polygon fill="black" stroke="black" points="269.95,-921.54 272.54,-931.81 276.92,-922.16 269.95,-921.54"/>
</g>
<!-- vg -->
<g id="node23" class="node">
<title>vg</title>
<polygon fill="none" stroke="black" points="281,-228.44 308,-216 335,-228.44 334.97,-248.56 281.03,-248.56 281,-228.44"/>
<text text-anchor="middle" x="308" y="-228.95" font-family="Times,serif" font-size="14.00">vg</text>
</g>
<!-- rr&#45;&gt;vg -->
<g id="edge26" class="edge">
<title>rr&#45;&gt;vg</title>
<path fill="none" stroke="black" d="M286.32,-793.65C318.54,-772.49 382,-723.17 382,-662.78 382,-662.78 382,-662.78 382,-377 382,-330.5 350.4,-284.14 328.5,-257.59"/>
<polygon fill="black" stroke="black" points="331.36,-255.55 322.21,-250.21 326.04,-260.09 331.36,-255.55"/>
</g>
<!-- tc -->
<g id="node30" class="node">
<title>tc</title>
<polygon fill="none" stroke="black" points="0,-728.22 27,-715.78 54,-728.22 53.97,-748.35 0.03,-748.35 0,-728.22"/>
<text text-anchor="middle" x="27" y="-728.73" font-family="Times,serif" font-size="14.00">tc</text>
</g>
<!-- rr&#45;&gt;tc -->
<g id="edge25" class="edge">
<title>rr&#45;&gt;tc</title>
<path fill="none" stroke="black" d="M245.21,-799.79C207.78,-791.37 131.12,-773.13 68,-751.78 66.87,-751.4 65.72,-751 64.57,-750.59"/>
<polygon fill="black" stroke="black" points="66.16,-747.45 55.57,-747.18 63.68,-754 66.16,-747.45"/>
</g>
<!-- rr&#45;&gt;kh -->
<g id="edge23" class="edge">
<title>rr&#45;&gt;kh</title>
<path fill="none" stroke="black" d="M275.69,-787.69C286.79,-761.41 306,-709.23 306,-662.78 306,-662.78 306,-662.78 306,-554.89 306,-500.79 297.93,-437.76 292.91,-403.78"/>
<polygon fill="black" stroke="black" points="296.41,-403.5 291.45,-394.14 289.49,-404.55 296.41,-403.5"/>
</g>
<!-- lt -->
<g id="node39" class="node">
<title>lt</title>
<polygon fill="none" stroke="black" points="768,-733.78 754.5,-751.78 727.5,-751.78 714,-733.78 727.5,-715.78 754.5,-715.78 768,-733.78"/>
<text text-anchor="middle" x="741" y="-728.73" font-family="Times,serif" font-size="14.00">lt</text>
</g>
<!-- rr&#45;&gt;lt -->
<g id="edge22" class="edge">
<title>rr&#45;&gt;lt</title>
<path fill="none" stroke="black" d="M292.11,-801.22C369.84,-789.71 614.14,-753.56 705.8,-739.99"/>
<polygon fill="black" stroke="black" points="706.07,-743.49 715.44,-738.57 705.04,-736.57 706.07,-743.49"/>
</g>
<!-- hv -->
<g id="node12" class="node">
<title>hv</title>
<polygon fill="none" stroke="black" points="1799,-550.33 1826,-537.89 1853,-550.33 1852.97,-570.45 1799.03,-570.45 1799,-550.33"/>
<text text-anchor="middle" x="1826" y="-550.84" font-family="Times,serif" font-size="14.00">hv</text>
</g>
<!-- nh -->
<g id="node13" class="node">
<title>nh</title>
<polygon fill="none" stroke="black" points="1799,-444.44 1826,-432 1853,-444.44 1852.97,-464.56 1799.03,-464.56 1799,-444.44"/>
<text text-anchor="middle" x="1826" y="-444.95" font-family="Times,serif" font-size="14.00">nh</text>
</g>
<!-- hv&#45;&gt;nh -->
<g id="edge27" class="edge">
<title>hv&#45;&gt;nh</title>
<path fill="none" stroke="black" d="M1826,-537.74C1826,-521 1826,-495.35 1826,-476.28"/>
<polygon fill="black" stroke="black" points="1829.5,-476.37 1826,-466.37 1822.5,-476.37 1829.5,-476.37"/>
</g>
<!-- nh&#45;&gt;pq -->
<g id="edge28" class="edge">
<title>nh&#45;&gt;pq</title>
<path fill="none" stroke="black" d="M1845.79,-465.04C1886.32,-495.6 1975,-572.56 1975,-660.78 1975,-734.78 1975,-734.78 1975,-734.78 1975,-775.23 1983.62,-794.24 1956,-823.78 1917.85,-864.59 1850.74,-874.74 1808.41,-876.85"/>
<polygon fill="black" stroke="black" points="1808.56,-873.34 1798.69,-877.19 1808.81,-880.34 1808.56,-873.34"/>
</g>
<!-- xm -->
<g id="node44" class="node">
<title>xm</title>
<polygon fill="none" stroke="black" points="1741.32,-372.44 1770,-360 1798.68,-372.44 1798.65,-392.56 1741.35,-392.56 1741.32,-372.44"/>
<text text-anchor="middle" x="1770" y="-372.95" font-family="Times,serif" font-size="14.00">xm</text>
</g>
<!-- nh&#45;&gt;xm -->
<g id="edge29" class="edge">
<title>nh&#45;&gt;xm</title>
<path fill="none" stroke="black" d="M1815.99,-436.49C1808.24,-426.8 1797.31,-413.14 1788.05,-401.57"/>
<polygon fill="black" stroke="black" points="1791,-399.65 1782.02,-394.03 1785.54,-404.02 1791,-399.65"/>
</g>
<!-- vz -->
<g id="node21" class="node">
<title>vz</title>
<polygon fill="none" stroke="black" points="992,-733.78 978.5,-751.78 951.5,-751.78 938,-733.78 951.5,-715.78 978.5,-715.78 992,-733.78"/>
<text text-anchor="middle" x="965" y="-728.73" font-family="Times,serif" font-size="14.00">vz</text>
</g>
<!-- jz&#45;&gt;vz -->
<g id="edge31" class="edge">
<title>jz&#45;&gt;vz</title>
<path fill="none" stroke="black" d="M740.8,-877.08C784.19,-876.16 870.35,-868.35 924,-823.78 942.49,-808.43 953.06,-782.92 958.82,-763.13"/>
<polygon fill="black" stroke="black" points="962.13,-764.29 961.29,-753.73 955.36,-762.51 962.13,-764.29"/>
</g>
<!-- xz -->
<g id="node35" class="node">
<title>xz</title>
<polygon fill="none" stroke="black" points="827,-800.22 854,-787.78 881,-800.22 880.97,-820.35 827.03,-820.35 827,-800.22"/>
<text text-anchor="middle" x="854" y="-800.73" font-family="Times,serif" font-size="14.00">xz</text>
</g>
<!-- jz&#45;&gt;xz -->
<g id="edge32" class="edge">
<title>jz&#45;&gt;xz</title>
<path fill="none" stroke="black" d="M733.47,-867.05C754.89,-856.34 789.84,-838.87 816.6,-825.48"/>
<polygon fill="black" stroke="black" points="818.04,-828.68 825.42,-821.07 814.91,-822.42 818.04,-828.68"/>
</g>
<!-- jz&#45;&gt;bn -->
<g id="edge30" class="edge">
<title>jz&#45;&gt;bn</title>
<path fill="none" stroke="black" d="M730.1,-892.32C738.63,-901.54 748.75,-914.01 756.66,-924.88"/>
<polygon fill="black" stroke="black" points="753.75,-926.83 762.33,-933.04 759.49,-922.83 753.75,-926.83"/>
</g>
<!-- vf -->
<g id="node15" class="node">
<title>vf</title>
<polygon fill="none" stroke="black" points="1124,-84.44 1151,-72 1178,-84.44 1177.97,-104.56 1124.03,-104.56 1124,-84.44"/>
<text text-anchor="middle" x="1151" y="-84.95" font-family="Times,serif" font-size="14.00">vf</text>
</g>
<!-- vf&#45;&gt;sl -->
<g id="edge34" class="edge">
<title>vf&#45;&gt;sl</title>
<path fill="none" stroke="black" d="M1151,-104.71C1151,-130.04 1151,-185.91 1151,-233 1151,-662.78 1151,-662.78 1151,-662.78 1151,-735.21 1195.68,-811.21 1222.43,-850.21"/>
<polygon fill="black" stroke="black" points="1219.49,-852.12 1228.09,-858.29 1225.22,-848.1 1219.49,-852.12"/>
</g>
<!-- nc -->
<g id="node57" class="node">
<title>nc</title>
<polygon fill="none" stroke="black" points="1087,-12.44 1114,0 1141,-12.44 1140.97,-32.56 1087.03,-32.56 1087,-12.44"/>
<text text-anchor="middle" x="1114" y="-12.95" font-family="Times,serif" font-size="14.00">nc</text>
</g>
<!-- vf&#45;&gt;nc -->
<g id="edge33" class="edge">
<title>vf&#45;&gt;nc</title>
<path fill="none" stroke="black" d="M1143.69,-75.17C1138.83,-65.97 1132.31,-53.63 1126.62,-42.87"/>
<polygon fill="black" stroke="black" points="1129.77,-41.34 1122,-34.14 1123.58,-44.62 1129.77,-41.34"/>
</g>
<!-- pc -->
<g id="node41" class="node">
<title>pc</title>
<polygon fill="none" stroke="black" points="1256,-228.44 1283,-216 1310,-228.44 1309.97,-248.56 1256.03,-248.56 1256,-228.44"/>
<text text-anchor="middle" x="1283" y="-228.95" font-family="Times,serif" font-size="14.00">pc</text>
</g>
<!-- gk&#45;&gt;pc -->
<g id="edge35" class="edge">
<title>gk&#45;&gt;pc</title>
<path fill="none" stroke="black" d="M1370.8,-294.67C1355.65,-284.37 1331.96,-268.28 1313.01,-255.39"/>
<polygon fill="black" stroke="black" points="1315.09,-252.58 1304.85,-249.85 1311.16,-258.37 1315.09,-252.58"/>
</g>
<!-- bs&#45;&gt;gk -->
<g id="edge36" class="edge">
<title>bs&#45;&gt;gk</title>
<path fill="none" stroke="black" d="M1386,-359.7C1386,-351.36 1386,-341.22 1386,-332.06"/>
<polygon fill="black" stroke="black" points="1389.5,-332.34 1386,-322.34 1382.5,-332.34 1389.5,-332.34"/>
</g>
<!-- pq&#45;&gt;hv -->
<g id="edge40" class="edge">
<title>pq&#45;&gt;hv</title>
<path fill="none" stroke="black" d="M1772.56,-859.49C1778.36,-820.78 1793.12,-724.19 1808,-643.78 1811.88,-622.84 1816.82,-599.17 1820.54,-581.83"/>
<polygon fill="black" stroke="black" points="1823.93,-582.69 1822.63,-572.18 1817.09,-581.21 1823.93,-582.69"/>
</g>
<!-- pq&#45;&gt;ls -->
<g id="edge39" class="edge">
<title>pq&#45;&gt;ls</title>
<path fill="none" stroke="black" d="M1775.91,-896.08C1776.74,-904.07 1776.95,-913.73 1776.56,-922.59"/>
<polygon fill="black" stroke="black" points="1773.08,-922.18 1775.76,-932.43 1780.06,-922.75 1773.08,-922.18"/>
</g>
<!-- tb -->
<g id="node33" class="node">
<title>tb</title>
<polygon fill="none" stroke="black" points="1893,-800.22 1920,-787.78 1947,-800.22 1946.97,-820.35 1893.03,-820.35 1893,-800.22"/>
<text text-anchor="middle" x="1920" y="-800.73" font-family="Times,serif" font-size="14.00">tb</text>
</g>
<!-- pq&#45;&gt;tb -->
<g id="edge37" class="edge">
<title>pq&#45;&gt;tb</title>
<path fill="none" stroke="black" d="M1789.61,-867.63C1813.09,-856.67 1852.94,-838.08 1882.42,-824.32"/>
<polygon fill="black" stroke="black" points="1883.81,-827.54 1891.39,-820.14 1880.85,-821.19 1883.81,-827.54"/>
</g>
<!-- qh -->
<g id="node38" class="node">
<title>qh</title>
<polygon fill="none" stroke="black" points="1533,-805.78 1519.5,-823.78 1492.5,-823.78 1479,-805.78 1492.5,-787.78 1519.5,-787.78 1533,-805.78"/>
<text text-anchor="middle" x="1506" y="-800.73" font-family="Times,serif" font-size="14.00">qh</text>
</g>
<!-- pq&#45;&gt;qh -->
<g id="edge38" class="edge">
<title>pq&#45;&gt;qh</title>
<path fill="none" stroke="black" d="M1747.95,-870.94C1701.55,-858.63 1593.65,-830.02 1538.99,-815.53"/>
<polygon fill="black" stroke="black" points="1540.2,-812.23 1529.64,-813.05 1538.41,-819 1540.2,-812.23"/>
</g>
<!-- pq&#45;&gt;ql -->
<g id="edge41" class="edge">
<title>pq&#45;&gt;ql</title>
<path fill="none" stroke="black" d="M1753.45,-863.85C1726.23,-840.99 1675,-790.55 1675,-734.78 1675,-734.78 1675,-734.78 1675,-377 1675,-334.53 1690.32,-287.04 1700.97,-259.16"/>
<polygon fill="black" stroke="black" points="1704.08,-260.81 1704.5,-250.22 1697.57,-258.24 1704.08,-260.81"/>
</g>
<!-- jb -->
<g id="node19" class="node">
<title>jb</title>
<polygon fill="none" stroke="black" points="205,-550.33 232,-537.89 259,-550.33 258.97,-570.45 205.03,-570.45 205,-550.33"/>
<text text-anchor="middle" x="232" y="-550.84" font-family="Times,serif" font-size="14.00">jb</text>
</g>
<!-- jb&#45;&gt;hc -->
<g id="edge43" class="edge">
<title>jb&#45;&gt;hc</title>
<path fill="none" stroke="black" d="M232,-537.74C232,-521 232,-495.35 232,-476.28"/>
<polygon fill="black" stroke="black" points="235.5,-476.37 232,-466.37 228.5,-476.37 235.5,-476.37"/>
</g>
<!-- jb&#45;&gt;rr -->
<g id="edge42" class="edge">
<title>jb&#45;&gt;rr</title>
<path fill="none" stroke="black" d="M235.03,-570.68C238.71,-587.77 244.93,-617.82 249,-643.78 256.22,-689.89 262.06,-743.82 265.28,-776.09"/>
<polygon fill="black" stroke="black" points="261.77,-776.22 266.23,-785.83 268.74,-775.53 261.77,-776.22"/>
</g>
<!-- fv&#45;&gt;rr -->
<g id="edge45" class="edge">
<title>fv&#45;&gt;rr</title>
<path fill="none" stroke="black" d="M263.6,-933.32C260.9,-909.82 260.53,-864.73 262.47,-835.21"/>
<polygon fill="black" stroke="black" points="265.94,-835.76 263.28,-825.5 258.96,-835.18 265.94,-835.76"/>
</g>
<!-- cd -->
<g id="node24" class="node">
<title>cd</title>
<polygon fill="none" stroke="black" points="177,-872.22 204,-859.78 231,-872.22 230.97,-892.35 177.03,-892.35 177,-872.22"/>
<text text-anchor="middle" x="204" y="-872.73" font-family="Times,serif" font-size="14.00">cd</text>
</g>
<!-- fv&#45;&gt;cd -->
<g id="edge44" class="edge">
<title>fv&#45;&gt;cd</title>
<path fill="none" stroke="black" d="M256.85,-936.59C247.95,-926.85 235.23,-912.94 224.5,-901.2"/>
<polygon fill="black" stroke="black" points="227.13,-898.9 217.8,-893.88 221.96,-903.62 227.13,-898.9"/>
</g>
<!-- vz&#45;&gt;ft -->
<g id="edge46" class="edge">
<title>vz&#45;&gt;ft</title>
<path fill="none" stroke="black" d="M971.92,-715.48C974.94,-707.94 978.55,-698.9 981.93,-690.46"/>
<polygon fill="black" stroke="black" points="985.13,-691.88 985.6,-681.29 978.63,-689.28 985.13,-691.88"/>
</g>
<!-- mm -->
<g id="node22" class="node">
<title>mm</title>
<polygon fill="none" stroke="black" points="170.53,-156.44 203,-144 235.47,-156.44 235.44,-176.56 170.56,-176.56 170.53,-156.44"/>
<text text-anchor="middle" x="203" y="-156.95" font-family="Times,serif" font-size="14.00">mm</text>
</g>
<!-- mm&#45;&gt;rr -->
<g id="edge48" class="edge">
<title>mm&#45;&gt;rr</title>
<path fill="none" stroke="black" d="M188.16,-176.75C164.29,-200.45 120,-251.6 120,-305 120,-662.78 120,-662.78 120,-662.78 120,-727.12 193.73,-771.38 237.11,-791.85"/>
<polygon fill="black" stroke="black" points="235.49,-794.96 246.04,-795.91 238.39,-788.59 235.49,-794.96"/>
</g>
<!-- jr -->
<g id="node36" class="node">
<title>jr</title>
<polygon fill="none" stroke="black" points="176,-84.44 203,-72 230,-84.44 229.97,-104.56 176.03,-104.56 176,-84.44"/>
<text text-anchor="middle" x="203" y="-84.95" font-family="Times,serif" font-size="14.00">jr</text>
</g>
<!-- mm&#45;&gt;jr -->
<g id="edge47" class="edge">
<title>mm&#45;&gt;jr</title>
<path fill="none" stroke="black" d="M203,-143.7C203,-135.36 203,-125.22 203,-116.06"/>
<polygon fill="black" stroke="black" points="206.5,-116.34 203,-106.34 199.5,-116.34 206.5,-116.34"/>
</g>
<!-- vg&#45;&gt;mm -->
<g id="edge49" class="edge">
<title>vg&#45;&gt;mm</title>
<path fill="none" stroke="black" d="M292.51,-222.67C276.99,-212.33 252.69,-196.13 233.33,-183.22"/>
<polygon fill="black" stroke="black" points="235.52,-180.47 225.26,-177.84 231.64,-186.3 235.52,-180.47"/>
</g>
<!-- cd&#45;&gt;rr -->
<g id="edge51" class="edge">
<title>cd&#45;&gt;rr</title>
<path fill="none" stroke="black" d="M215.15,-864.59C223.6,-855.35 235.48,-842.36 245.84,-831.03"/>
<polygon fill="black" stroke="black" points="248.19,-833.64 252.36,-823.89 243.03,-828.91 248.19,-833.64"/>
</g>
<!-- cd&#45;&gt;tc -->
<g id="edge50" class="edge">
<title>cd&#45;&gt;tc</title>
<path fill="none" stroke="black" d="M190.11,-865.64C160.54,-841.91 90.94,-786.08 52.91,-755.57"/>
<polygon fill="black" stroke="black" points="55.59,-753.23 45.6,-749.7 51.21,-758.69 55.59,-753.23"/>
</g>
<!-- bq&#45;&gt;ft -->
<g id="edge52" class="edge">
<title>bq&#45;&gt;ft</title>
<path fill="none" stroke="black" d="M1016.69,-787.37C1012.13,-763.4 1003.87,-719.93 998.4,-691.2"/>
<polygon fill="black" stroke="black" points="1001.84,-690.55 996.54,-681.38 994.97,-691.86 1001.84,-690.55"/>
</g>
<!-- xg -->
<g id="node26" class="node">
<title>xg</title>
<polygon fill="none" stroke="black" points="619,-372.44 646,-360 673,-372.44 672.97,-392.56 619.03,-392.56 619,-372.44"/>
<text text-anchor="middle" x="646" y="-372.95" font-family="Times,serif" font-size="14.00">xg</text>
</g>
<!-- xg&#45;&gt;jz -->
<g id="edge54" class="edge">
<title>xg&#45;&gt;jz</title>
<path fill="none" stroke="black" d="M640.92,-392.78C637.18,-403.38 632.2,-418.46 629,-432 616.3,-485.79 610,-499.62 610,-554.89 610,-734.78 610,-734.78 610,-734.78 610,-787.12 656.56,-832.99 687.37,-857.62"/>
<polygon fill="black" stroke="black" points="685.11,-860.29 695.16,-863.64 689.39,-854.75 685.11,-860.29"/>
</g>
<!-- pb -->
<g id="node29" class="node">
<title>pb</title>
<polygon fill="none" stroke="black" points="619,-300.44 646,-288 673,-300.44 672.97,-320.56 619.03,-320.56 619,-300.44"/>
<text text-anchor="middle" x="646" y="-300.95" font-family="Times,serif" font-size="14.00">pb</text>
</g>
<!-- xg&#45;&gt;pb -->
<g id="edge53" class="edge">
<title>xg&#45;&gt;pb</title>
<path fill="none" stroke="black" d="M646,-359.7C646,-351.36 646,-341.22 646,-332.06"/>
<polygon fill="black" stroke="black" points="649.5,-332.34 646,-322.34 642.5,-332.34 649.5,-332.34"/>
</g>
<!-- xx&#45;&gt;zd -->
<g id="edge55" class="edge">
<title>xx&#45;&gt;zd</title>
<path fill="none" stroke="black" d="M1251.51,-718.95C1256.5,-709.75 1263.2,-697.42 1269.04,-686.65"/>
<polygon fill="black" stroke="black" points="1272.09,-688.37 1273.79,-677.91 1265.94,-685.03 1272.09,-688.37"/>
</g>
<!-- ls&#45;&gt;pq -->
<g id="edge57" class="edge">
<title>ls&#45;&gt;pq</title>
<path fill="none" stroke="black" d="M1764.36,-933.94C1763.4,-926.24 1763.06,-916.56 1763.35,-907.47"/>
<polygon fill="black" stroke="black" points="1766.84,-907.79 1763.99,-897.59 1759.85,-907.34 1766.84,-907.79"/>
</g>
<!-- ls&#45;&gt;tb -->
<g id="edge56" class="edge">
<title>ls&#45;&gt;tb</title>
<path fill="none" stroke="black" d="M1782.28,-937.16C1807.45,-913.33 1865.27,-858.59 1897.41,-828.17"/>
<polygon fill="black" stroke="black" points="1899.41,-831.09 1904.27,-821.67 1894.6,-826.01 1899.41,-831.09"/>
</g>
<!-- pb&#45;&gt;jz -->
<g id="edge58" class="edge">
<title>pb&#45;&gt;jz</title>
<path fill="none" stroke="black" d="M673.26,-308.96C740.71,-315.43 910,-342.31 910,-449 910,-734.78 910,-734.78 910,-734.78 910,-775.33 917.63,-794.11 890,-823.78 854.35,-862.07 792.19,-873.06 752.09,-876.01"/>
<polygon fill="black" stroke="black" points="751.94,-872.51 742.17,-876.59 752.35,-879.5 751.94,-872.51"/>
</g>
<!-- rz -->
<g id="node52" class="node">
<title>rz</title>
<polygon fill="none" stroke="black" points="562,-228.44 589,-216 616,-228.44 615.97,-248.56 562.03,-248.56 562,-228.44"/>
<text text-anchor="middle" x="589" y="-228.95" font-family="Times,serif" font-size="14.00">rz</text>
</g>
<!-- pb&#45;&gt;rz -->
<g id="edge59" class="edge">
<title>pb&#45;&gt;rz</title>
<path fill="none" stroke="black" d="M635.81,-292.49C627.93,-282.8 616.8,-269.14 607.38,-257.57"/>
<polygon fill="black" stroke="black" points="610.26,-255.56 601.23,-250.02 604.83,-259.98 610.26,-255.56"/>
</g>
<!-- vp -->
<g id="node49" class="node">
<title>vp</title>
<polygon fill="none" stroke="black" points="186,-656.22 213,-643.78 240,-656.22 239.97,-676.35 186.03,-676.35 186,-656.22"/>
<text text-anchor="middle" x="213" y="-656.73" font-family="Times,serif" font-size="14.00">vp</text>
</g>
<!-- tc&#45;&gt;vp -->
<g id="edge60" class="edge">
<title>tc&#45;&gt;vp</title>
<path fill="none" stroke="black" d="M47.62,-725.02C78.39,-713.44 136.85,-691.44 175.38,-676.94"/>
<polygon fill="black" stroke="black" points="176.13,-680.4 184.26,-673.6 173.67,-673.85 176.13,-680.4"/>
</g>
<!-- ck -->
<g id="node46" class="node">
<title>ck</title>
<polygon fill="none" stroke="black" points="281,-300.44 308,-288 335,-300.44 334.97,-320.56 281.03,-320.56 281,-300.44"/>
<text text-anchor="middle" x="308" y="-300.95" font-family="Times,serif" font-size="14.00">ck</text>
</g>
<!-- kh&#45;&gt;ck -->
<g id="edge61" class="edge">
<title>kh&#45;&gt;ck</title>
<path fill="none" stroke="black" d="M293.22,-361.46C295.61,-352.66 298.65,-341.46 301.35,-331.5"/>
<polygon fill="black" stroke="black" points="304.67,-332.63 303.91,-322.06 297.91,-330.8 304.67,-332.63"/>
</g>
<!-- lp&#45;&gt;xx -->
<g id="edge62" class="edge">
<title>lp&#45;&gt;xx</title>
<path fill="none" stroke="black" d="M1145.85,-795.05C1162.75,-784.67 1189.99,-767.95 1211.49,-754.75"/>
<polygon fill="black" stroke="black" points="1213.22,-757.79 1219.91,-749.57 1209.56,-751.82 1213.22,-757.79"/>
</g>
<!-- tb&#45;&gt;ss -->
<g id="edge63" class="edge">
<title>tb&#45;&gt;ss</title>
<path fill="none" stroke="black" d="M1912.49,-790.95C1907.5,-781.75 1900.8,-769.42 1894.96,-758.65"/>
<polygon fill="black" stroke="black" points="1898.06,-757.03 1890.21,-749.91 1891.91,-760.37 1898.06,-757.03"/>
</g>
<!-- qk -->
<g id="node34" class="node">
<title>qk</title>
<polygon fill="none" stroke="black" points="638,-444.44 665,-432 692,-444.44 691.97,-464.56 638.03,-464.56 638,-444.44"/>
<text text-anchor="middle" x="665" y="-444.95" font-family="Times,serif" font-size="14.00">qk</text>
</g>
<!-- qk&#45;&gt;jz -->
<g id="edge64" class="edge">
<title>qk&#45;&gt;jz</title>
<path fill="none" stroke="black" d="M663.12,-464.71C658.69,-498.16 648,-586.61 648,-660.78 648,-734.78 648,-734.78 648,-734.78 648,-778.61 674.17,-823.55 693.55,-850.82"/>
<polygon fill="black" stroke="black" points="690.69,-852.83 699.43,-858.81 696.33,-848.68 690.69,-852.83"/>
</g>
<!-- qk&#45;&gt;xg -->
<g id="edge65" class="edge">
<title>qk&#45;&gt;xg</title>
<path fill="none" stroke="black" d="M660.78,-433.46C658.39,-424.66 655.35,-413.46 652.65,-403.5"/>
<polygon fill="black" stroke="black" points="656.09,-402.8 650.09,-394.06 649.33,-404.63 656.09,-402.8"/>
</g>
<!-- xz&#45;&gt;dm -->
<g id="edge66" class="edge">
<title>xz&#45;&gt;dm</title>
<path fill="none" stroke="black" d="M853.75,-787.48C853.63,-779.15 853.49,-769 853.36,-759.84"/>
<polygon fill="black" stroke="black" points="856.86,-760.07 853.22,-750.12 849.86,-760.17 856.86,-760.07"/>
</g>
<!-- jr&#45;&gt;rr -->
<g id="edge68" class="edge">
<title>jr&#45;&gt;rr</title>
<path fill="none" stroke="black" d="M178.51,-104.96C143.16,-127.15 82,-174.05 82,-233 82,-662.78 82,-662.78 82,-662.78 82,-708.82 99.98,-721.9 135,-751.78 163.63,-776.21 204.91,-790.28 233.87,-797.7"/>
<polygon fill="black" stroke="black" points="232.68,-801.02 243.22,-799.96 234.32,-794.21 232.68,-801.02"/>
</g>
<!-- rb -->
<g id="node40" class="node">
<title>rb</title>
<polygon fill="none" stroke="black" points="264,-12.44 291,0 318,-12.44 317.97,-32.56 264.03,-32.56 264,-12.44"/>
<text text-anchor="middle" x="291" y="-12.95" font-family="Times,serif" font-size="14.00">rb</text>
</g>
<!-- jr&#45;&gt;rb -->
<g id="edge67" class="edge">
<title>jr&#45;&gt;rb</title>
<path fill="none" stroke="black" d="M216.75,-78.06C229.52,-67.91 248.88,-52.51 264.63,-39.98"/>
<polygon fill="black" stroke="black" points="266.57,-42.9 272.22,-33.94 262.21,-37.43 266.57,-42.9"/>
</g>
<!-- mb&#45;&gt;hv -->
<g id="edge69" class="edge">
<title>mb&#45;&gt;hv</title>
<path fill="none" stroke="black" d="M1842.96,-645C1839.74,-628.27 1834.61,-601.59 1830.83,-581.97"/>
<polygon fill="black" stroke="black" points="1834.29,-581.46 1828.97,-572.31 1827.42,-582.79 1834.29,-581.46"/>
</g>
<!-- mb&#45;&gt;pq -->
<g id="edge70" class="edge">
<title>mb&#45;&gt;pq</title>
<path fill="none" stroke="black" d="M1843.74,-676.6C1838.78,-705.02 1825.55,-771.75 1803,-823.78 1799.18,-832.59 1794.05,-841.65 1788.98,-849.74"/>
<polygon fill="black" stroke="black" points="1786.06,-847.81 1783.51,-858.09 1791.92,-851.64 1786.06,-847.81"/>
</g>
<!-- qh&#45;&gt;ft -->
<g id="edge71" class="edge">
<title>qh&#45;&gt;ft</title>
<path fill="none" stroke="black" d="M1486.19,-795.48C1447.42,-777.6 1358.44,-738.25 1280,-715.78 1191.28,-690.38 1083.53,-674.3 1028.73,-667.13"/>
<polygon fill="black" stroke="black" points="1029.42,-663.69 1019.06,-665.89 1028.53,-670.63 1029.42,-663.69"/>
</g>
<!-- lt&#45;&gt;ft -->
<g id="edge72" class="edge">
<title>lt&#45;&gt;ft</title>
<path fill="none" stroke="black" d="M762.92,-726.69C807.23,-714.39 907.66,-686.49 959.95,-671.96"/>
<polygon fill="black" stroke="black" points="960.79,-675.36 969.49,-669.31 958.92,-668.62 960.79,-675.36"/>
</g>
<!-- rb&#45;&gt;rr -->
<g id="edge73" class="edge">
<title>rb&#45;&gt;rr</title>
<path fill="none" stroke="black" d="M317.73,-32.9C355.51,-54.69 420,-100.71 420,-161 420,-662.78 420,-662.78 420,-662.78 420,-728.34 343.57,-772.33 299.1,-792.37"/>
<polygon fill="black" stroke="black" points="297.98,-789.04 290.2,-796.23 300.77,-795.46 297.98,-789.04"/>
</g>
<!-- pc&#45;&gt;sl -->
<g id="edge75" class="edge">
<title>pc&#45;&gt;sl</title>
<path fill="none" stroke="black" d="M1265.76,-248.71C1238.62,-271.97 1189,-322.01 1189,-377 1189,-662.78 1189,-662.78 1189,-662.78 1189,-731.21 1214.85,-808.43 1230.44,-848.79"/>
<polygon fill="black" stroke="black" points="1227.14,-849.97 1234.07,-857.98 1233.65,-847.4 1227.14,-849.97"/>
</g>
<!-- hr -->
<g id="node42" class="node">
<title>hr</title>
<polygon fill="none" stroke="black" points="1256,-156.44 1283,-144 1310,-156.44 1309.97,-176.56 1256.03,-176.56 1256,-156.44"/>
<text text-anchor="middle" x="1283" y="-156.95" font-family="Times,serif" font-size="14.00">hr</text>
</g>
<!-- pc&#45;&gt;hr -->
<g id="edge74" class="edge">
<title>pc&#45;&gt;hr</title>
<path fill="none" stroke="black" d="M1283,-215.7C1283,-207.36 1283,-197.22 1283,-188.06"/>
<polygon fill="black" stroke="black" points="1286.5,-188.34 1283,-178.34 1279.5,-188.34 1286.5,-188.34"/>
</g>
<!-- hr&#45;&gt;sl -->
<g id="edge77" class="edge">
<title>hr&#45;&gt;sl</title>
<path fill="none" stroke="black" d="M1310.42,-164.34C1380.55,-169.38 1561,-193.22 1561,-305 1561,-734.78 1561,-734.78 1561,-734.78 1561,-775.23 1571.1,-795.7 1542,-823.78 1504.96,-859.53 1350.79,-871.56 1279.03,-875.27"/>
<polygon fill="black" stroke="black" points="1279.18,-871.76 1269.36,-875.74 1279.52,-878.75 1279.18,-871.76"/>
</g>
<!-- hr&#45;&gt;vf -->
<g id="edge76" class="edge">
<title>hr&#45;&gt;vf</title>
<path fill="none" stroke="black" d="M1265.47,-151.7C1245.62,-141.18 1212.74,-123.74 1187.3,-110.25"/>
<polygon fill="black" stroke="black" points="1189.07,-107.23 1178.6,-105.64 1185.79,-113.41 1189.07,-107.23"/>
</g>
<!-- gd&#45;&gt;sl -->
<g id="edge79" class="edge">
<title>gd&#45;&gt;sl</title>
<path fill="none" stroke="black" d="M1359.88,-464.71C1364.31,-498.16 1375,-586.61 1375,-660.78 1375,-734.78 1375,-734.78 1375,-734.78 1375,-794.81 1310.91,-839.92 1271.71,-861.91"/>
<polygon fill="black" stroke="black" points="1270.09,-858.81 1262.96,-866.64 1273.42,-864.96 1270.09,-858.81"/>
</g>
<!-- gd&#45;&gt;bs -->
<g id="edge78" class="edge">
<title>gd&#45;&gt;bs</title>
<path fill="none" stroke="black" d="M1363.8,-434.5C1367.38,-425.56 1372.06,-413.86 1376.19,-403.51"/>
<polygon fill="black" stroke="black" points="1379.37,-405 1379.83,-394.41 1372.87,-402.4 1379.37,-405"/>
</g>
<!-- xm&#45;&gt;dp -->
<g id="edge80" class="edge">
<title>xm&#45;&gt;dp</title>
<path fill="none" stroke="black" d="M1762.1,-363.17C1756.78,-353.87 1749.64,-341.38 1743.45,-330.53"/>
<polygon fill="black" stroke="black" points="1746.64,-329.06 1738.64,-322.12 1740.56,-332.53 1746.64,-329.06"/>
</g>
<!-- xm&#45;&gt;pq -->
<g id="edge81" class="edge">
<title>xm&#45;&gt;pq</title>
<path fill="none" stroke="black" d="M1767.52,-392.63C1762.37,-422.12 1751,-494.08 1751,-554.89 1751,-734.78 1751,-734.78 1751,-734.78 1751,-774.39 1758.35,-819.67 1763.91,-848.24"/>
<polygon fill="black" stroke="black" points="1760.45,-848.8 1765.86,-857.91 1767.31,-847.42 1760.45,-848.8"/>
</g>
<!-- ct&#45;&gt;jz -->
<g id="edge82" class="edge">
<title>ct&#45;&gt;jz</title>
<path fill="none" stroke="black" d="M794.17,-676.65C791.56,-694.42 786.08,-726 777,-751.78 764.57,-787.08 744.3,-825.15 730.11,-849.88"/>
<polygon fill="black" stroke="black" points="727.22,-847.9 725.21,-858.3 733.27,-851.42 727.22,-847.9"/>
</g>
<!-- rj -->
<g id="node58" class="node">
<title>rj</title>
<polygon fill="none" stroke="black" points="676,-550.33 703,-537.89 730,-550.33 729.97,-570.45 676.03,-570.45 676,-550.33"/>
<text text-anchor="middle" x="703" y="-550.84" font-family="Times,serif" font-size="14.00">rj</text>
</g>
<!-- ct&#45;&gt;rj -->
<g id="edge83" class="edge">
<title>ct&#45;&gt;rj</title>
<path fill="none" stroke="black" d="M784.97,-648.46C769.73,-631.43 741.97,-600.43 723.02,-579.26"/>
<polygon fill="black" stroke="black" points="725.79,-577.1 716.51,-571.98 720.57,-581.77 725.79,-577.1"/>
</g>
<!-- ck&#45;&gt;rr -->
<g id="edge85" class="edge">
<title>ck&#45;&gt;rr</title>
<path fill="none" stroke="black" d="M313.94,-320.81C324.17,-345.86 344,-400.68 344,-449 344,-662.78 344,-662.78 344,-662.78 344,-708.56 312.92,-753.85 290.51,-780.57"/>
<polygon fill="black" stroke="black" points="287.92,-778.22 284.01,-788.07 293.2,-782.81 287.92,-778.22"/>
</g>
<!-- ck&#45;&gt;vg -->
<g id="edge84" class="edge">
<title>ck&#45;&gt;vg</title>
<path fill="none" stroke="black" d="M308,-287.7C308,-279.36 308,-269.22 308,-260.06"/>
<polygon fill="black" stroke="black" points="311.5,-260.34 308,-250.34 304.5,-260.34 311.5,-260.34"/>
</g>
<!-- cr -->
<g id="node47" class="node">
<title>cr</title>
<polygon fill="none" stroke="black" points="524,-156.44 551,-144 578,-156.44 577.97,-176.56 524.03,-176.56 524,-156.44"/>
<text text-anchor="middle" x="551" y="-156.95" font-family="Times,serif" font-size="14.00">cr</text>
</g>
<!-- cr&#45;&gt;rf -->
<g id="edge87" class="edge">
<title>cr&#45;&gt;rf</title>
<path fill="none" stroke="black" d="M543.49,-147.17C538.5,-137.97 531.8,-125.63 525.96,-114.87"/>
<polygon fill="black" stroke="black" points="529.06,-113.25 521.21,-106.13 522.91,-116.59 529.06,-113.25"/>
</g>
<!-- cr&#45;&gt;jz -->
<g id="edge86" class="edge">
<title>cr&#45;&gt;jz</title>
<path fill="none" stroke="black" d="M548.19,-177.04C543.36,-202.46 534,-257.83 534,-305 534,-734.78 534,-734.78 534,-734.78 534,-780.37 550.73,-793.72 585,-823.78 612.35,-847.78 652.05,-861.87 680.17,-869.41"/>
<polygon fill="black" stroke="black" points="679.05,-872.74 689.61,-871.79 680.77,-865.95 679.05,-872.74"/>
</g>
<!-- bn&#45;&gt;jz -->
<g id="edge89" class="edge">
<title>bn&#45;&gt;jz</title>
<path fill="none" stroke="black" d="M755.34,-937.85C747.01,-929.13 736.63,-916.57 728.24,-905.26"/>
<polygon fill="black" stroke="black" points="731.28,-903.51 722.62,-897.41 725.59,-907.58 731.28,-903.51"/>
</g>
<!-- bn&#45;&gt;xz -->
<g id="edge88" class="edge">
<title>bn&#45;&gt;xz</title>
<path fill="none" stroke="black" d="M777.15,-935.17C791.65,-910.95 822.07,-860.13 839.98,-830.2"/>
<polygon fill="black" stroke="black" points="842.84,-832.24 844.97,-821.87 836.83,-828.65 842.84,-832.24"/>
</g>
<!-- vp&#45;&gt;rr -->
<g id="edge90" class="edge">
<title>vp&#45;&gt;rr</title>
<path fill="none" stroke="black" d="M218.32,-676.51C227.24,-699.55 245.39,-746.42 257.11,-776.67"/>
<polygon fill="black" stroke="black" points="253.83,-777.9 260.71,-785.96 260.36,-775.37 253.83,-777.9"/>
</g>
<!-- vp&#45;&gt;jb -->
<g id="edge91" class="edge">
<title>vp&#45;&gt;jb</title>
<path fill="none" stroke="black" d="M215.89,-645C218.95,-628.27 223.82,-601.59 227.41,-581.97"/>
<polygon fill="black" stroke="black" points="230.82,-582.77 229.18,-572.31 223.94,-581.51 230.82,-582.77"/>
</g>
<!-- hl -->
<g id="node50" class="node">
<title>hl</title>
<polygon fill="none" stroke="black" points="1627,-84.44 1654,-72 1681,-84.44 1680.97,-104.56 1627.03,-104.56 1627,-84.44"/>
<text text-anchor="middle" x="1654" y="-84.95" font-family="Times,serif" font-size="14.00">hl</text>
</g>
<!-- hl&#45;&gt;pq -->
<g id="edge92" class="edge">
<title>hl&#45;&gt;pq</title>
<path fill="none" stroke="black" d="M1651.19,-105.04C1646.36,-130.46 1637,-185.83 1637,-233 1637,-734.78 1637,-734.78 1637,-734.78 1637,-794.81 1701.09,-839.92 1740.29,-861.91"/>
<polygon fill="black" stroke="black" points="1738.58,-864.96 1749.04,-866.64 1741.91,-858.81 1738.58,-864.96"/>
</g>
<!-- vj -->
<g id="node55" class="node">
<title>vj</title>
<polygon fill="none" stroke="black" points="1599,-12.44 1626,0 1653,-12.44 1652.97,-32.56 1599.03,-32.56 1599,-12.44"/>
<text text-anchor="middle" x="1626" y="-12.95" font-family="Times,serif" font-size="14.00">vj</text>
</g>
<!-- hl&#45;&gt;vj -->
<g id="edge93" class="edge">
<title>hl&#45;&gt;vj</title>
<path fill="none" stroke="black" d="M1648.2,-74.5C1644.62,-65.56 1639.94,-53.86 1635.81,-43.51"/>
<polygon fill="black" stroke="black" points="1639.13,-42.4 1632.17,-34.41 1632.63,-45 1639.13,-42.4"/>
</g>
<!-- ts&#45;&gt;sl -->
<g id="edge95" class="edge">
<title>ts&#45;&gt;sl</title>
<path fill="none" stroke="black" d="M1200.3,-933.59C1205.18,-924.48 1212.68,-912.7 1220.06,-902.39"/>
<polygon fill="black" stroke="black" points="1222.65,-904.78 1225.83,-894.68 1217.04,-900.59 1222.65,-904.78"/>
</g>
<!-- ts&#45;&gt;lp -->
<g id="edge94" class="edge">
<title>ts&#45;&gt;lp</title>
<path fill="none" stroke="black" d="M1189.31,-934.39C1178.03,-910.13 1155.13,-860.85 1141.32,-831.14"/>
<polygon fill="black" stroke="black" points="1144.54,-829.76 1137.15,-822.17 1138.19,-832.71 1144.54,-829.76"/>
</g>
<!-- rz&#45;&gt;jz -->
<g id="edge96" class="edge">
<title>rz&#45;&gt;jz</title>
<path fill="none" stroke="black" d="M586.19,-249.04C581.36,-274.46 572,-329.83 572,-377 572,-734.78 572,-734.78 572,-734.78 572,-780.15 590.09,-791.53 622,-823.78 639.31,-841.28 663.59,-854.95 682.87,-864.02"/>
<polygon fill="black" stroke="black" points="681.33,-867.16 691.88,-868.08 684.2,-860.78 681.33,-867.16"/>
</g>
<!-- rz&#45;&gt;cr -->
<g id="edge97" class="edge">
<title>rz&#45;&gt;cr</title>
<path fill="none" stroke="black" d="M581.49,-219.17C576.5,-209.97 569.8,-197.63 563.96,-186.87"/>
<polygon fill="black" stroke="black" points="567.06,-185.25 559.21,-178.13 560.91,-188.59 567.06,-185.25"/>
</g>
<!-- tr -->
<g id="node56" class="node">
<title>tr</title>
<polygon fill="none" stroke="black" points="1684,-156.44 1711,-144 1738,-156.44 1737.97,-176.56 1684.03,-176.56 1684,-156.44"/>
<text text-anchor="middle" x="1711" y="-156.95" font-family="Times,serif" font-size="14.00">tr</text>
</g>
<!-- ql&#45;&gt;tr -->
<g id="edge98" class="edge">
<title>ql&#45;&gt;tr</title>
<path fill="none" stroke="black" d="M1711,-215.7C1711,-207.36 1711,-197.22 1711,-188.06"/>
<polygon fill="black" stroke="black" points="1714.5,-188.34 1711,-178.34 1707.5,-188.34 1714.5,-188.34"/>
</g>
<!-- xk&#45;&gt;jz -->
<g id="edge99" class="edge">
<title>xk&#45;&gt;jz</title>
<path fill="none" stroke="black" d="M480.54,-32.94C472.87,-58.2 458,-113.32 458,-161 458,-734.78 458,-734.78 458,-734.78 458,-779.73 470.57,-796.13 506,-823.78 555.88,-862.73 631.12,-873.33 676.12,-876.05"/>
<polygon fill="black" stroke="black" points="675.75,-879.53 685.9,-876.53 676.09,-872.54 675.75,-879.53"/>
</g>
<!-- vj&#45;&gt;pq -->
<g id="edge100" class="edge">
<title>vj&#45;&gt;pq</title>
<path fill="none" stroke="black" d="M1621.54,-32.94C1613.87,-58.2 1599,-113.32 1599,-161 1599,-734.78 1599,-734.78 1599,-734.78 1599,-781.05 1618.38,-793.09 1653,-823.78 1677.16,-845.21 1711.43,-859.35 1736.64,-867.6"/>
<polygon fill="black" stroke="black" points="1735.48,-870.91 1746.07,-870.53 1737.56,-864.22 1735.48,-870.91"/>
</g>
<!-- tr&#45;&gt;pq -->
<g id="edge101" class="edge">
<title>tr&#45;&gt;pq</title>
<path fill="none" stroke="black" d="M1738.33,-163.38C1812.67,-165.98 2013,-184.2 2013,-305 2013,-734.78 2013,-734.78 2013,-734.78 2013,-777.13 2010.63,-795.64 1979,-823.78 1931.28,-866.24 1854.31,-875.65 1808.29,-877.2"/>
<polygon fill="black" stroke="black" points="1808.45,-873.69 1798.53,-877.41 1808.6,-880.69 1808.45,-873.69"/>
</g>
<!-- tr&#45;&gt;hl -->
<g id="edge102" class="edge">
<title>tr&#45;&gt;hl</title>
<path fill="none" stroke="black" d="M1700.81,-148.49C1692.93,-138.8 1681.8,-125.14 1672.38,-113.57"/>
<polygon fill="black" stroke="black" points="1675.26,-111.56 1666.23,-106.02 1669.83,-115.98 1675.26,-111.56"/>
</g>
<!-- nc&#45;&gt;sl -->
<g id="edge107" class="edge">
<title>nc&#45;&gt;sl</title>
<path fill="none" stroke="black" d="M1107.73,-32.78C1096.93,-57.78 1076,-112.51 1076,-161 1076,-451 1076,-451 1076,-451 1076,-533.94 1044.63,-757.14 1094,-823.78 1119.69,-858.46 1170.11,-870.52 1204.91,-874.67"/>
<polygon fill="black" stroke="black" points="1204.24,-878.12 1214.54,-875.65 1204.95,-871.16 1204.24,-878.12"/>
</g>
<!-- rj&#45;&gt;jz -->
<g id="edge108" class="edge">
<title>rj&#45;&gt;jz</title>
<path fill="none" stroke="black" d="M702.85,-570.6C702.57,-602.44 702.21,-683.83 705,-751.78 706.36,-784.85 709.28,-822.75 711.43,-848.07"/>
<polygon fill="black" stroke="black" points="707.93,-848.24 712.28,-857.9 714.9,-847.64 707.93,-848.24"/>
</g>
<!-- rj&#45;&gt;qk -->
<g id="edge109" class="edge">
<title>rj&#45;&gt;qk</title>
<path fill="none" stroke="black" d="M697.56,-540.01C691.41,-523.22 681.33,-495.64 674.01,-475.63"/>
<polygon fill="black" stroke="black" points="677.31,-474.47 670.59,-466.28 670.74,-476.88 677.31,-474.47"/>
</g>
</g>
</svg>
