<?xml version="1.0" encoding="UTF-8" standalone="no"?>
<!DOCTYPE svg PUBLIC "-//W3C//DTD SVG 1.1//EN"
 "http://www.w3.org/Graphics/SVG/1.1/DTD/svg11.dtd">
<!-- Generated by graphviz version 9.0.0 (20230911.1827)
 -->
<!-- Pages: 1 -->
<svg width="2144pt" height="1120pt"
 viewBox="0.00 0.00 2144.00 1119.78" xmlns="http://www.w3.org/2000/svg" xmlns:xlink="http://www.w3.org/1999/xlink">
<g id="graph0" class="graph" transform="scale(1 1) rotate(0) translate(4 1115.78)">
<polygon fill="white" stroke="none" points="-4,4 -4,-1115.78 2140,-1115.78 2140,4 -4,4"/>
<g id="clust59" class="cluster">
<title>cluster_final_conjuction</title>
<polygon fill="none" stroke="black" points="882,-707.78 882,-831.78 1168,-831.78 1168,-707.78 882,-707.78"/>
</g>
<!-- broadcaster -->
<g id="node1" class="node">
<title>broadcaster</title>
<polygon fill="none" stroke="black" points="906.12,-1111.78 827.88,-1111.78 827.88,-1075.78 906.12,-1075.78 906.12,-1111.78"/>
<text text-anchor="middle" x="867" y="-1088.73" font-family="Times,serif" font-size="14.00">broadcaster</text>
</g>
<!-- fv -->
<g id="node20" class="node">
<title>fv</title>
<polygon fill="none" stroke="black" points="267,-1016.22 294,-1003.78 321,-1016.22 320.97,-1036.35 267.03,-1036.35 267,-1016.22"/>
<text text-anchor="middle" x="294" y="-1016.73" font-family="Times,serif" font-size="14.00">fv</text>
</g>
<!-- broadcaster&#45;&gt;fv -->
<g id="edge104" class="edge">
<title>broadcaster&#45;&gt;fv</title>
<path fill="none" stroke="black" d="M827.62,-1087.97C722.56,-1075.14 436.61,-1040.21 332.54,-1027.49"/>
<polygon fill="black" stroke="black" points="333.19,-1024.04 322.84,-1026.31 332.34,-1030.99 333.19,-1024.04"/>
</g>
<!-- ls -->
<g id="node28" class="node">
<title>ls</title>
<polygon fill="none" stroke="black" points="664,-944.22 691,-931.78 718,-944.22 717.97,-964.35 664.03,-964.35 664,-944.22"/>
<text text-anchor="middle" x="691" y="-944.73" font-family="Times,serif" font-size="14.00">ls</text>
</g>
<!-- broadcaster&#45;&gt;ls -->
<g id="edge103" class="edge">
<title>broadcaster&#45;&gt;ls</title>
<path fill="none" stroke="black" d="M845.42,-1075.37C812.89,-1049.13 751.43,-999.54 716.66,-971.48"/>
<polygon fill="black" stroke="black" points="719.17,-969.02 709.19,-965.46 714.78,-974.47 719.17,-969.02"/>
</g>
<!-- bn -->
<g id="node48" class="node">
<title>bn</title>
<polygon fill="none" stroke="black" points="1332,-944.22 1359,-931.78 1386,-944.22 1385.97,-964.35 1332.03,-964.35 1332,-944.22"/>
<text text-anchor="middle" x="1359" y="-944.73" font-family="Times,serif" font-size="14.00">bn</text>
</g>
<!-- broadcaster&#45;&gt;bn -->
<g id="edge106" class="edge">
<title>broadcaster&#45;&gt;bn</title>
<path fill="none" stroke="black" d="M906.43,-1081.4C999.04,-1054.67 1229.49,-988.16 1320.83,-961.8"/>
<polygon fill="black" stroke="black" points="1321.67,-965.2 1330.31,-959.06 1319.73,-958.47 1321.67,-965.2"/>
</g>
<!-- ts -->
<g id="node51" class="node">
<title>ts</title>
<polygon fill="none" stroke="black" points="1822,-944.22 1849,-931.78 1876,-944.22 1875.97,-964.35 1822.03,-964.35 1822,-944.22"/>
<text text-anchor="middle" x="1849" y="-944.73" font-family="Times,serif" font-size="14.00">ts</text>
</g>
<!-- broadcaster&#45;&gt;ts -->
<g id="edge105" class="edge">
<title>broadcaster&#45;&gt;ts</title>
<path fill="none" stroke="black" d="M906.41,-1087.09C1064.71,-1064.19 1653.38,-979.07 1810.33,-956.38"/>
<polygon fill="black" stroke="black" points="1810.81,-959.84 1820.21,-954.95 1809.81,-952.91 1810.81,-959.84"/>
</g>
<!-- dm -->
<g id="node2" class="node">
<title>dm</title>
<polygon fill="none" stroke="black" points="1406.32,-728.22 1435,-715.78 1463.68,-728.22 1463.65,-748.35 1406.35,-748.35 1406.32,-728.22"/>
<text text-anchor="middle" x="1435" y="-728.73" font-family="Times,serif" font-size="14.00">dm</text>
</g>
<!-- jz -->
<g id="node14" class="node">
<title>jz</title>
<polygon fill="none" stroke="black" points="1386,-877.78 1372.5,-895.78 1345.5,-895.78 1332,-877.78 1345.5,-859.78 1372.5,-859.78 1386,-877.78"/>
<text text-anchor="middle" x="1359" y="-872.73" font-family="Times,serif" font-size="14.00">jz</text>
</g>
<!-- dm&#45;&gt;jz -->
<g id="edge1" class="edge">
<title>dm&#45;&gt;jz</title>
<path fill="none" stroke="black" d="M1429.91,-748.73C1422.64,-768 1408.34,-803.57 1392,-831.78 1388.3,-838.17 1383.89,-844.73 1379.51,-850.81"/>
<polygon fill="black" stroke="black" points="1376.84,-848.53 1373.66,-858.64 1382.45,-852.72 1376.84,-848.53"/>
</g>
<!-- ct -->
<g id="node45" class="node">
<title>ct</title>
<polygon fill="none" stroke="black" points="1368,-622.33 1395,-609.89 1422,-622.33 1421.97,-642.45 1368.03,-642.45 1368,-622.33"/>
<text text-anchor="middle" x="1395" y="-622.84" font-family="Times,serif" font-size="14.00">ct</text>
</g>
<!-- dm&#45;&gt;ct -->
<g id="edge2" class="edge">
<title>dm&#45;&gt;ct</title>
<path fill="none" stroke="black" d="M1429.27,-717.9C1422.77,-701.03 1412.09,-673.28 1404.38,-653.24"/>
<polygon fill="black" stroke="black" points="1407.74,-652.24 1400.88,-644.17 1401.21,-654.76 1407.74,-652.24"/>
</g>
<!-- ft -->
<g id="node3" class="node">
<title>ft</title>
<polygon fill="none" stroke="black" points="1052,-733.78 1038.5,-751.78 1011.5,-751.78 998,-733.78 1011.5,-715.78 1038.5,-715.78 1052,-733.78"/>
<text text-anchor="middle" x="1025" y="-728.73" font-family="Times,serif" font-size="14.00">ft</text>
</g>
<!-- rx -->
<g id="node59" class="node">
<title>rx</title>
<polygon fill="none" stroke="black" points="1079.56,-640.14 1037.88,-640.14 1025,-679.78 1012.12,-640.14 970.44,-640.14 1004.16,-615.64 991.28,-576 1025,-600.5 1058.72,-576 1045.84,-615.64 1079.56,-640.14"/>
<text text-anchor="middle" x="1025" y="-622.84" font-family="Times,serif" font-size="14.00">rx</text>
</g>
<!-- ft&#45;&gt;rx -->
<g id="edge3" class="edge">
<title>ft&#45;&gt;rx</title>
<path fill="none" stroke="black" d="M1025,-715.63C1025,-708.98 1025,-700.92 1025,-692.42"/>
<polygon fill="black" stroke="black" points="1028.5,-692.59 1025,-682.59 1021.5,-692.59 1028.5,-692.59"/>
</g>
<!-- hc -->
<g id="node4" class="node">
<title>hc</title>
<polygon fill="none" stroke="black" points="123,-516.44 150,-504 177,-516.44 176.97,-536.56 123.03,-536.56 123,-516.44"/>
<text text-anchor="middle" x="150" y="-516.95" font-family="Times,serif" font-size="14.00">hc</text>
</g>
<!-- kh -->
<g id="node31" class="node">
<title>kh</title>
<polygon fill="none" stroke="black" points="123,-444.44 150,-432 177,-444.44 176.97,-464.56 123.03,-464.56 123,-444.44"/>
<text text-anchor="middle" x="150" y="-444.95" font-family="Times,serif" font-size="14.00">kh</text>
</g>
<!-- hc&#45;&gt;kh -->
<g id="edge4" class="edge">
<title>hc&#45;&gt;kh</title>
<path fill="none" stroke="black" d="M150,-503.7C150,-495.36 150,-485.22 150,-476.06"/>
<polygon fill="black" stroke="black" points="153.5,-476.34 150,-466.34 146.5,-476.34 153.5,-476.34"/>
</g>
<!-- kg -->
<g id="node5" class="node">
<title>kg</title>
<polygon fill="none" stroke="black" points="1839,-516.44 1866,-504 1893,-516.44 1892.97,-536.56 1839.03,-536.56 1839,-516.44"/>
<text text-anchor="middle" x="1866" y="-516.95" font-family="Times,serif" font-size="14.00">kg</text>
</g>
<!-- sl -->
<g id="node6" class="node">
<title>sl</title>
<polygon fill="none" stroke="black" points="1876,-877.78 1862.5,-895.78 1835.5,-895.78 1822,-877.78 1835.5,-859.78 1862.5,-859.78 1876,-877.78"/>
<text text-anchor="middle" x="1849" y="-872.73" font-family="Times,serif" font-size="14.00">sl</text>
</g>
<!-- kg&#45;&gt;sl -->
<g id="edge6" class="edge">
<title>kg&#45;&gt;sl</title>
<path fill="none" stroke="black" d="M1860.32,-536.66C1856.26,-547.2 1851.15,-562.25 1849,-576 1833.54,-674.84 1841.22,-794.19 1846.06,-848"/>
<polygon fill="black" stroke="black" points="1842.57,-848.21 1846.99,-857.84 1849.54,-847.55 1842.57,-848.21"/>
</g>
<!-- gd -->
<g id="node43" class="node">
<title>gd</title>
<polygon fill="none" stroke="black" points="1839,-444.44 1866,-432 1893,-444.44 1892.97,-464.56 1839.03,-464.56 1839,-444.44"/>
<text text-anchor="middle" x="1866" y="-444.95" font-family="Times,serif" font-size="14.00">gd</text>
</g>
<!-- kg&#45;&gt;gd -->
<g id="edge5" class="edge">
<title>kg&#45;&gt;gd</title>
<path fill="none" stroke="black" d="M1866,-503.7C1866,-495.36 1866,-485.22 1866,-476.06"/>
<polygon fill="black" stroke="black" points="1869.5,-476.34 1866,-466.34 1862.5,-476.34 1869.5,-476.34"/>
</g>
<!-- zd -->
<g id="node8" class="node">
<title>zd</title>
<polygon fill="none" stroke="black" points="1858,-622.33 1885,-609.89 1912,-622.33 1911.97,-642.45 1858.03,-642.45 1858,-622.33"/>
<text text-anchor="middle" x="1885" y="-622.84" font-family="Times,serif" font-size="14.00">zd</text>
</g>
<!-- sl&#45;&gt;zd -->
<g id="edge10" class="edge">
<title>sl&#45;&gt;zd</title>
<path fill="none" stroke="black" d="M1851.53,-859.35C1857.8,-816.18 1874.07,-704.18 1881.36,-653.93"/>
<polygon fill="black" stroke="black" points="1884.78,-654.73 1882.76,-644.33 1877.86,-653.73 1884.78,-654.73"/>
</g>
<!-- gk -->
<g id="node16" class="node">
<title>gk</title>
<polygon fill="none" stroke="black" points="1877,-300.44 1904,-288 1931,-300.44 1930.97,-320.56 1877.03,-320.56 1877,-300.44"/>
<text text-anchor="middle" x="1904" y="-300.95" font-family="Times,serif" font-size="14.00">gk</text>
</g>
<!-- sl&#45;&gt;gk -->
<g id="edge11" class="edge">
<title>sl&#45;&gt;gk</title>
<path fill="none" stroke="black" d="M1831.7,-864.53C1820.94,-856.24 1807.41,-844.5 1798,-831.78 1769.85,-793.72 1754,-782.12 1754,-734.78 1754,-734.78 1754,-734.78 1754,-449 1754,-387.09 1822.23,-344.09 1866.66,-322.66"/>
<polygon fill="black" stroke="black" points="1867.87,-325.96 1875.46,-318.57 1864.92,-319.61 1867.87,-325.96"/>
</g>
<!-- bs -->
<g id="node17" class="node">
<title>bs</title>
<polygon fill="none" stroke="black" points="1877,-372.44 1904,-360 1931,-372.44 1930.97,-392.56 1877.03,-392.56 1877,-372.44"/>
<text text-anchor="middle" x="1904" y="-372.95" font-family="Times,serif" font-size="14.00">bs</text>
</g>
<!-- sl&#45;&gt;bs -->
<g id="edge7" class="edge">
<title>sl&#45;&gt;bs</title>
<path fill="none" stroke="black" d="M1868.31,-867.05C1904.3,-847.38 1978,-799.23 1978,-734.78 1978,-734.78 1978,-734.78 1978,-521 1978,-474.5 1946.4,-428.14 1924.5,-401.59"/>
<polygon fill="black" stroke="black" points="1927.36,-399.55 1918.21,-394.21 1922.04,-404.09 1927.36,-399.55"/>
</g>
<!-- bq -->
<g id="node25" class="node">
<title>bq</title>
<polygon fill="none" stroke="black" points="1160,-805.78 1146.5,-823.78 1119.5,-823.78 1106,-805.78 1119.5,-787.78 1146.5,-787.78 1160,-805.78"/>
<text text-anchor="middle" x="1133" y="-800.73" font-family="Times,serif" font-size="14.00">bq</text>
</g>
<!-- sl&#45;&gt;bq -->
<g id="edge8" class="edge">
<title>sl&#45;&gt;bq</title>
<path fill="none" stroke="black" d="M1824.35,-874.37C1717.75,-863.95 1296.03,-822.72 1169.24,-810.33"/>
<polygon fill="black" stroke="black" points="1169.71,-806.86 1159.42,-809.37 1169.03,-813.82 1169.71,-806.86"/>
</g>
<!-- xx -->
<g id="node27" class="node">
<title>xx</title>
<polygon fill="none" stroke="black" points="1896,-728.22 1923,-715.78 1950,-728.22 1949.97,-748.35 1896.03,-748.35 1896,-728.22"/>
<text text-anchor="middle" x="1923" y="-728.73" font-family="Times,serif" font-size="14.00">xx</text>
</g>
<!-- sl&#45;&gt;xx -->
<g id="edge12" class="edge">
<title>sl&#45;&gt;xx</title>
<path fill="none" stroke="black" d="M1862.84,-859.9C1869.16,-851.71 1876.45,-841.56 1882,-831.78 1895.35,-808.26 1906.97,-779.52 1914.39,-759.46"/>
<polygon fill="black" stroke="black" points="1917.64,-760.77 1917.75,-750.18 1911.06,-758.39 1917.64,-760.77"/>
</g>
<!-- lp -->
<g id="node32" class="node">
<title>lp</title>
<polygon fill="none" stroke="black" points="2082,-800.22 2109,-787.78 2136,-800.22 2135.97,-820.35 2082.03,-820.35 2082,-800.22"/>
<text text-anchor="middle" x="2109" y="-800.73" font-family="Times,serif" font-size="14.00">lp</text>
</g>
<!-- sl&#45;&gt;lp -->
<g id="edge13" class="edge">
<title>sl&#45;&gt;lp</title>
<path fill="none" stroke="black" d="M1874.1,-874.46C1915.65,-870 2000.82,-858.23 2068,-831.78 2071.87,-830.26 2075.8,-828.38 2079.6,-826.34"/>
<polygon fill="black" stroke="black" points="2081.1,-829.52 2087.98,-821.46 2077.57,-823.47 2081.1,-829.52"/>
</g>
<!-- sl&#45;&gt;ts -->
<g id="edge9" class="edge">
<title>sl&#45;&gt;ts</title>
<path fill="none" stroke="black" d="M1854.91,-896.08C1855.74,-904.07 1855.95,-913.73 1855.56,-922.59"/>
<polygon fill="black" stroke="black" points="1852.08,-922.18 1854.76,-932.43 1859.06,-922.75 1852.08,-922.18"/>
</g>
<!-- rf -->
<g id="node7" class="node">
<title>rf</title>
<polygon fill="none" stroke="black" points="1438,-84.44 1465,-72 1492,-84.44 1491.97,-104.56 1438.03,-104.56 1438,-84.44"/>
<text text-anchor="middle" x="1465" y="-84.95" font-family="Times,serif" font-size="14.00">rf</text>
</g>
<!-- rf&#45;&gt;jz -->
<g id="edge15" class="edge">
<title>rf&#45;&gt;jz</title>
<path fill="none" stroke="black" d="M1484.37,-104.71C1514.21,-127.59 1568,-176.66 1568,-233 1568,-734.78 1568,-734.78 1568,-734.78 1568,-785.95 1546.75,-800.84 1506,-831.78 1473.35,-856.58 1426.94,-867.83 1395.05,-872.85"/>
<polygon fill="black" stroke="black" points="1394.91,-869.33 1385.51,-874.22 1395.91,-876.26 1394.91,-869.33"/>
</g>
<!-- xk -->
<g id="node54" class="node">
<title>xk</title>
<polygon fill="none" stroke="black" points="1299,-12.44 1326,0 1353,-12.44 1352.97,-32.56 1299.03,-32.56 1299,-12.44"/>
<text text-anchor="middle" x="1326" y="-12.95" font-family="Times,serif" font-size="14.00">xk</text>
</g>
<!-- rf&#45;&gt;xk -->
<g id="edge14" class="edge">
<title>rf&#45;&gt;xk</title>
<path fill="none" stroke="black" d="M1446.83,-79.85C1425.78,-69.25 1390.54,-51.5 1363.53,-37.9"/>
<polygon fill="black" stroke="black" points="1365.12,-34.78 1354.62,-33.41 1361.97,-41.04 1365.12,-34.78"/>
</g>
<!-- zd&#45;&gt;kg -->
<g id="edge16" class="edge">
<title>zd&#45;&gt;kg</title>
<path fill="none" stroke="black" d="M1882.11,-611.11C1879.05,-594.38 1874.18,-567.7 1870.59,-548.08"/>
<polygon fill="black" stroke="black" points="1874.06,-547.62 1868.82,-538.42 1867.18,-548.88 1874.06,-547.62"/>
</g>
<!-- dp -->
<g id="node9" class="node">
<title>dp</title>
<polygon fill="none" stroke="black" points="683,-300.44 710,-288 737,-300.44 736.97,-320.56 683.03,-320.56 683,-300.44"/>
<text text-anchor="middle" x="710" y="-300.95" font-family="Times,serif" font-size="14.00">dp</text>
</g>
<!-- pq -->
<g id="node18" class="node">
<title>pq</title>
<polygon fill="none" stroke="black" points="718,-877.78 704.5,-895.78 677.5,-895.78 664,-877.78 677.5,-859.78 704.5,-859.78 718,-877.78"/>
<text text-anchor="middle" x="691" y="-872.73" font-family="Times,serif" font-size="14.00">pq</text>
</g>
<!-- dp&#45;&gt;pq -->
<g id="edge18" class="edge">
<title>dp&#45;&gt;pq</title>
<path fill="none" stroke="black" d="M682.53,-311.19C622.72,-322.04 486,-356.91 486,-449 486,-734.78 486,-734.78 486,-734.78 486,-778.71 474.63,-800.05 505,-831.78 525.43,-853.13 607.23,-866.53 655.28,-872.73"/>
<polygon fill="black" stroke="black" points="654.57,-876.17 664.92,-873.93 655.43,-869.22 654.57,-876.17"/>
</g>
<!-- ql -->
<g id="node53" class="node">
<title>ql</title>
<polygon fill="none" stroke="black" points="742,-228.44 769,-216 796,-228.44 795.97,-248.56 742.03,-248.56 742,-228.44"/>
<text text-anchor="middle" x="769" y="-228.95" font-family="Times,serif" font-size="14.00">ql</text>
</g>
<!-- dp&#45;&gt;ql -->
<g id="edge17" class="edge">
<title>dp&#45;&gt;ql</title>
<path fill="none" stroke="black" d="M720.55,-292.49C728.71,-282.8 740.22,-269.14 749.98,-257.57"/>
<polygon fill="black" stroke="black" points="752.59,-259.9 756.35,-250 747.23,-255.39 752.59,-259.9"/>
</g>
<!-- ss -->
<g id="node10" class="node">
<title>ss</title>
<polygon fill="none" stroke="black" points="590,-728.22 617,-715.78 644,-728.22 643.97,-748.35 590.03,-748.35 590,-728.22"/>
<text text-anchor="middle" x="617" y="-728.73" font-family="Times,serif" font-size="14.00">ss</text>
</g>
<!-- ss&#45;&gt;pq -->
<g id="edge19" class="edge">
<title>ss&#45;&gt;pq</title>
<path fill="none" stroke="black" d="M621.74,-748.75C628.54,-768.04 642.02,-803.64 658,-831.78 661.64,-838.2 666.03,-844.78 670.41,-850.85"/>
<polygon fill="black" stroke="black" points="667.47,-852.77 676.26,-858.68 673.08,-848.58 667.47,-852.77"/>
</g>
<!-- mb -->
<g id="node37" class="node">
<title>mb</title>
<polygon fill="none" stroke="black" points="624.32,-622.33 653,-609.89 681.68,-622.33 681.65,-642.45 624.35,-642.45 624.32,-622.33"/>
<text text-anchor="middle" x="653" y="-622.84" font-family="Times,serif" font-size="14.00">mb</text>
</g>
<!-- ss&#45;&gt;mb -->
<g id="edge20" class="edge">
<title>ss&#45;&gt;mb</title>
<path fill="none" stroke="black" d="M622.16,-717.9C627.98,-701.11 637.53,-673.54 644.46,-653.52"/>
<polygon fill="black" stroke="black" points="647.73,-654.78 647.7,-644.18 641.12,-652.49 647.73,-654.78"/>
</g>
<!-- rr -->
<g id="node11" class="node">
<title>rr</title>
<polygon fill="none" stroke="black" points="289,-877.78 275.5,-895.78 248.5,-895.78 235,-877.78 248.5,-859.78 275.5,-859.78 289,-877.78"/>
<text text-anchor="middle" x="262" y="-872.73" font-family="Times,serif" font-size="14.00">rr</text>
</g>
<!-- rr&#45;&gt;hc -->
<g id="edge21" class="edge">
<title>rr&#45;&gt;hc</title>
<path fill="none" stroke="black" d="M240.89,-869.27C223.62,-862.12 199.71,-849.76 185,-831.78 139.78,-776.53 144.71,-750.22 133,-679.78 125.43,-634.28 125.87,-621.57 133,-576 134.5,-566.44 137.42,-556.25 140.43,-547.39"/>
<polygon fill="black" stroke="black" points="143.69,-548.68 143.8,-538.09 137.1,-546.29 143.69,-548.68"/>
</g>
<!-- rr&#45;&gt;fv -->
<g id="edge24" class="edge">
<title>rr&#45;&gt;fv</title>
<path fill="none" stroke="black" d="M270.46,-895.97C278.37,-919.89 288.52,-963.5 293.12,-992.31"/>
<polygon fill="black" stroke="black" points="289.64,-992.75 294.51,-1002.16 296.57,-991.76 289.64,-992.75"/>
</g>
<!-- vg -->
<g id="node23" class="node">
<title>vg</title>
<polygon fill="none" stroke="black" points="104,-300.44 131,-288 158,-300.44 157.97,-320.56 104.03,-320.56 104,-300.44"/>
<text text-anchor="middle" x="131" y="-300.95" font-family="Times,serif" font-size="14.00">vg</text>
</g>
<!-- rr&#45;&gt;vg -->
<g id="edge26" class="edge">
<title>rr&#45;&gt;vg</title>
<path fill="none" stroke="black" d="M235.92,-876.07C199.97,-873.81 134.78,-865.04 92,-831.78 53.04,-801.5 38,-784.13 38,-734.78 38,-734.78 38,-734.78 38,-449 38,-399.54 77.97,-353.9 105.51,-328.33"/>
<polygon fill="black" stroke="black" points="107.72,-331.05 112.82,-321.76 103.04,-325.84 107.72,-331.05"/>
</g>
<!-- tc -->
<g id="node30" class="node">
<title>tc</title>
<polygon fill="none" stroke="black" points="366,-800.22 393,-787.78 420,-800.22 419.97,-820.35 366.03,-820.35 366,-800.22"/>
<text text-anchor="middle" x="393" y="-800.73" font-family="Times,serif" font-size="14.00">tc</text>
</g>
<!-- rr&#45;&gt;tc -->
<g id="edge25" class="edge">
<title>rr&#45;&gt;tc</title>
<path fill="none" stroke="black" d="M281.56,-867.59C299.95,-858.81 328.16,-844.98 352,-831.78 355.04,-830.1 358.17,-828.31 361.29,-826.48"/>
<polygon fill="black" stroke="black" points="362.99,-829.54 369.77,-821.4 359.39,-823.53 362.99,-829.54"/>
</g>
<!-- rr&#45;&gt;kh -->
<g id="edge23" class="edge">
<title>rr&#45;&gt;kh</title>
<path fill="none" stroke="black" d="M262,-859.29C262,-832.49 262,-779.65 262,-734.78 262,-734.78 262,-734.78 262,-626.89 262,-562.75 208.36,-503.15 175.32,-472.52"/>
<polygon fill="black" stroke="black" points="177.9,-470.14 168.13,-466.03 173.21,-475.33 177.9,-470.14"/>
</g>
<!-- lt -->
<g id="node39" class="node">
<title>lt</title>
<polygon fill="none" stroke="black" points="944,-805.78 930.5,-823.78 903.5,-823.78 890,-805.78 903.5,-787.78 930.5,-787.78 944,-805.78"/>
<text text-anchor="middle" x="917" y="-800.73" font-family="Times,serif" font-size="14.00">lt</text>
</g>
<!-- rr&#45;&gt;lt -->
<g id="edge22" class="edge">
<title>rr&#45;&gt;lt</title>
<path fill="none" stroke="black" d="M286.88,-874.13C387.3,-863.39 763.06,-823.24 881.21,-810.61"/>
<polygon fill="black" stroke="black" points="881.37,-814.11 890.94,-809.57 880.63,-807.15 881.37,-814.11"/>
</g>
<!-- hv -->
<g id="node12" class="node">
<title>hv</title>
<polygon fill="none" stroke="black" points="645,-516.44 672,-504 699,-516.44 698.97,-536.56 645.03,-536.56 645,-516.44"/>
<text text-anchor="middle" x="672" y="-516.95" font-family="Times,serif" font-size="14.00">hv</text>
</g>
<!-- nh -->
<g id="node13" class="node">
<title>nh</title>
<polygon fill="none" stroke="black" points="645,-444.44 672,-432 699,-444.44 698.97,-464.56 645.03,-464.56 645,-444.44"/>
<text text-anchor="middle" x="672" y="-444.95" font-family="Times,serif" font-size="14.00">nh</text>
</g>
<!-- hv&#45;&gt;nh -->
<g id="edge27" class="edge">
<title>hv&#45;&gt;nh</title>
<path fill="none" stroke="black" d="M672,-503.7C672,-495.36 672,-485.22 672,-476.06"/>
<polygon fill="black" stroke="black" points="675.5,-476.34 672,-466.34 668.5,-476.34 675.5,-476.34"/>
</g>
<!-- nh&#45;&gt;pq -->
<g id="edge28" class="edge">
<title>nh&#45;&gt;pq</title>
<path fill="none" stroke="black" d="M660.95,-464.67C653.07,-474.97 642.73,-489.71 636,-504 587.93,-606.05 548.47,-643.77 581,-751.78 593.3,-792.62 605.12,-800.4 634,-831.78 642.86,-841.42 653.91,-850.64 663.92,-858.2"/>
<polygon fill="black" stroke="black" points="661.72,-860.93 671.86,-864 665.85,-855.27 661.72,-860.93"/>
</g>
<!-- xm -->
<g id="node44" class="node">
<title>xm</title>
<polygon fill="none" stroke="black" points="681.32,-372.44 710,-360 738.68,-372.44 738.65,-392.56 681.35,-392.56 681.32,-372.44"/>
<text text-anchor="middle" x="710" y="-372.95" font-family="Times,serif" font-size="14.00">xm</text>
</g>
<!-- nh&#45;&gt;xm -->
<g id="edge29" class="edge">
<title>nh&#45;&gt;xm</title>
<path fill="none" stroke="black" d="M679.51,-435.17C684.5,-425.97 691.2,-413.63 697.04,-402.87"/>
<polygon fill="black" stroke="black" points="700.09,-404.59 701.79,-394.13 693.94,-401.25 700.09,-404.59"/>
</g>
<!-- vz -->
<g id="node21" class="node">
<title>vz</title>
<polygon fill="none" stroke="black" points="1088,-805.78 1074.5,-823.78 1047.5,-823.78 1034,-805.78 1047.5,-787.78 1074.5,-787.78 1088,-805.78"/>
<text text-anchor="middle" x="1061" y="-800.73" font-family="Times,serif" font-size="14.00">vz</text>
</g>
<!-- jz&#45;&gt;vz -->
<g id="edge31" class="edge">
<title>jz&#45;&gt;vz</title>
<path fill="none" stroke="black" d="M1333.06,-876.03C1284.82,-873.84 1178.79,-865.27 1097,-831.78 1093.55,-830.37 1090.1,-828.58 1086.78,-826.62"/>
<polygon fill="black" stroke="black" points="1088.86,-823.8 1078.59,-821.2 1085,-829.64 1088.86,-823.8"/>
</g>
<!-- xz -->
<g id="node35" class="node">
<title>xz</title>
<polygon fill="none" stroke="black" points="1596,-800.22 1623,-787.78 1650,-800.22 1649.97,-820.35 1596.03,-820.35 1596,-800.22"/>
<text text-anchor="middle" x="1623" y="-800.73" font-family="Times,serif" font-size="14.00">xz</text>
</g>
<!-- jz&#45;&gt;xz -->
<g id="edge32" class="edge">
<title>jz&#45;&gt;xz</title>
<path fill="none" stroke="black" d="M1383.88,-874.61C1425.94,-870.32 1513.23,-858.72 1582,-831.78 1585.88,-830.27 1589.8,-828.39 1593.61,-826.35"/>
<polygon fill="black" stroke="black" points="1595.1,-829.53 1601.98,-821.47 1591.58,-823.48 1595.1,-829.53"/>
</g>
<!-- jz&#45;&gt;bn -->
<g id="edge30" class="edge">
<title>jz&#45;&gt;bn</title>
<path fill="none" stroke="black" d="M1364.91,-896.08C1365.74,-904.07 1365.95,-913.73 1365.56,-922.59"/>
<polygon fill="black" stroke="black" points="1362.08,-922.18 1364.76,-932.43 1369.06,-922.75 1362.08,-922.18"/>
</g>
<!-- vf -->
<g id="node15" class="node">
<title>vf</title>
<polygon fill="none" stroke="black" points="1706,-84.44 1733,-72 1760,-84.44 1759.97,-104.56 1706.03,-104.56 1706,-84.44"/>
<text text-anchor="middle" x="1733" y="-84.95" font-family="Times,serif" font-size="14.00">vf</text>
</g>
<!-- vf&#45;&gt;sl -->
<g id="edge34" class="edge">
<title>vf&#45;&gt;sl</title>
<path fill="none" stroke="black" d="M1730.19,-105.04C1725.36,-130.46 1716,-185.83 1716,-233 1716,-734.78 1716,-734.78 1716,-734.78 1716,-782.5 1728.85,-797.47 1762,-831.78 1777.07,-847.38 1798.71,-858.61 1816.64,-865.94"/>
<polygon fill="black" stroke="black" points="1815.23,-869.15 1825.82,-869.47 1817.75,-862.62 1815.23,-869.15"/>
</g>
<!-- nc -->
<g id="node57" class="node">
<title>nc</title>
<polygon fill="none" stroke="black" points="1678,-12.44 1705,0 1732,-12.44 1731.97,-32.56 1678.03,-32.56 1678,-12.44"/>
<text text-anchor="middle" x="1705" y="-12.95" font-family="Times,serif" font-size="14.00">nc</text>
</g>
<!-- vf&#45;&gt;nc -->
<g id="edge33" class="edge">
<title>vf&#45;&gt;nc</title>
<path fill="none" stroke="black" d="M1727.2,-74.5C1723.62,-65.56 1718.94,-53.86 1714.81,-43.51"/>
<polygon fill="black" stroke="black" points="1718.13,-42.4 1711.17,-34.41 1711.63,-45 1718.13,-42.4"/>
</g>
<!-- pc -->
<g id="node41" class="node">
<title>pc</title>
<polygon fill="none" stroke="black" points="1924,-228.44 1951,-216 1978,-228.44 1977.97,-248.56 1924.03,-248.56 1924,-228.44"/>
<text text-anchor="middle" x="1951" y="-228.95" font-family="Times,serif" font-size="14.00">pc</text>
</g>
<!-- gk&#45;&gt;pc -->
<g id="edge35" class="edge">
<title>gk&#45;&gt;pc</title>
<path fill="none" stroke="black" d="M1912.84,-291.83C1919.26,-282.28 1928.1,-269.1 1935.66,-257.85"/>
<polygon fill="black" stroke="black" points="1938.37,-260.09 1941.04,-249.84 1932.55,-256.19 1938.37,-260.09"/>
</g>
<!-- bs&#45;&gt;gk -->
<g id="edge36" class="edge">
<title>bs&#45;&gt;gk</title>
<path fill="none" stroke="black" d="M1904,-359.7C1904,-351.36 1904,-341.22 1904,-332.06"/>
<polygon fill="black" stroke="black" points="1907.5,-332.34 1904,-322.34 1900.5,-332.34 1907.5,-332.34"/>
</g>
<!-- pq&#45;&gt;hv -->
<g id="edge40" class="edge">
<title>pq&#45;&gt;hv</title>
<path fill="none" stroke="black" d="M692.92,-859.28C693.74,-850.96 694.6,-840.87 695,-831.78 695.87,-812.25 695.18,-807.34 695,-787.78 694.11,-693.65 708,-668.6 691,-576 689.26,-566.51 686.03,-556.45 682.73,-547.68"/>
<polygon fill="black" stroke="black" points="686,-546.43 679.02,-538.45 679.5,-549.04 686,-546.43"/>
</g>
<!-- pq&#45;&gt;ls -->
<g id="edge39" class="edge">
<title>pq&#45;&gt;ls</title>
<path fill="none" stroke="black" d="M696.91,-896.08C697.74,-904.07 697.95,-913.73 697.56,-922.59"/>
<polygon fill="black" stroke="black" points="694.08,-922.18 696.76,-932.43 701.06,-922.75 694.08,-922.18"/>
</g>
<!-- tb -->
<g id="node33" class="node">
<title>tb</title>
<polygon fill="none" stroke="black" points="514,-800.22 541,-787.78 568,-800.22 567.97,-820.35 514.03,-820.35 514,-800.22"/>
<text text-anchor="middle" x="541" y="-800.73" font-family="Times,serif" font-size="14.00">tb</text>
</g>
<!-- pq&#45;&gt;tb -->
<g id="edge37" class="edge">
<title>pq&#45;&gt;tb</title>
<path fill="none" stroke="black" d="M670.08,-869.26C647.81,-861 611.76,-846.88 582,-831.78 578.73,-830.12 575.37,-828.3 572.05,-826.41"/>
<polygon fill="black" stroke="black" points="574.04,-823.51 563.65,-821.43 570.47,-829.54 574.04,-823.51"/>
</g>
<!-- qh -->
<g id="node38" class="node">
<title>qh</title>
<polygon fill="none" stroke="black" points="1016,-805.78 1002.5,-823.78 975.5,-823.78 962,-805.78 975.5,-787.78 1002.5,-787.78 1016,-805.78"/>
<text text-anchor="middle" x="989" y="-800.73" font-family="Times,serif" font-size="14.00">qh</text>
</g>
<!-- pq&#45;&gt;qh -->
<g id="edge38" class="edge">
<title>pq&#45;&gt;qh</title>
<path fill="none" stroke="black" d="M716.94,-876.03C765.18,-873.84 871.21,-865.27 953,-831.78 956.45,-830.37 959.9,-828.58 963.22,-826.62"/>
<polygon fill="black" stroke="black" points="965,-829.64 971.41,-821.2 961.14,-823.8 965,-829.64"/>
</g>
<!-- pq&#45;&gt;ql -->
<g id="edge41" class="edge">
<title>pq&#45;&gt;ql</title>
<path fill="none" stroke="black" d="M708.69,-864.62C719.68,-856.37 733.48,-844.64 743,-831.78 771.06,-793.88 786,-781.94 786,-734.78 786,-734.78 786,-734.78 786,-377 786,-335.91 778.89,-288.59 773.87,-260.28"/>
<polygon fill="black" stroke="black" points="777.33,-259.73 772.08,-250.53 770.44,-261 777.33,-259.73"/>
</g>
<!-- jb -->
<g id="node19" class="node">
<title>jb</title>
<polygon fill="none" stroke="black" points="142,-622.33 169,-609.89 196,-622.33 195.97,-642.45 142.03,-642.45 142,-622.33"/>
<text text-anchor="middle" x="169" y="-622.84" font-family="Times,serif" font-size="14.00">jb</text>
</g>
<!-- jb&#45;&gt;hc -->
<g id="edge43" class="edge">
<title>jb&#45;&gt;hc</title>
<path fill="none" stroke="black" d="M166.11,-611.11C163.05,-594.38 158.18,-567.7 154.59,-548.08"/>
<polygon fill="black" stroke="black" points="158.06,-547.62 152.82,-538.42 151.18,-548.88 158.06,-547.62"/>
</g>
<!-- jb&#45;&gt;rr -->
<g id="edge42" class="edge">
<title>jb&#45;&gt;rr</title>
<path fill="none" stroke="black" d="M166.73,-642.93C163.52,-666.18 159.24,-713.88 171,-751.78 183.69,-792.71 215.93,-831.19 238.41,-854.37"/>
<polygon fill="black" stroke="black" points="235.88,-856.79 245.42,-861.4 240.84,-851.85 235.88,-856.79"/>
</g>
<!-- fv&#45;&gt;rr -->
<g id="edge45" class="edge">
<title>fv&#45;&gt;rr</title>
<path fill="none" stroke="black" d="M286.66,-1006.91C278.6,-983.87 267.66,-937.26 262.85,-907.07"/>
<polygon fill="black" stroke="black" points="266.37,-906.91 261.5,-897.5 259.44,-907.89 266.37,-906.91"/>
</g>
<!-- cd -->
<g id="node24" class="node">
<title>cd</title>
<polygon fill="none" stroke="black" points="299,-944.22 326,-931.78 353,-944.22 352.97,-964.35 299.03,-964.35 299,-944.22"/>
<text text-anchor="middle" x="326" y="-944.73" font-family="Times,serif" font-size="14.00">cd</text>
</g>
<!-- fv&#45;&gt;cd -->
<g id="edge44" class="edge">
<title>fv&#45;&gt;cd</title>
<path fill="none" stroke="black" d="M300.48,-1006.62C304.65,-997.49 310.19,-985.38 315.03,-974.77"/>
<polygon fill="black" stroke="black" points="318.15,-976.38 319.12,-965.83 311.78,-973.47 318.15,-976.38"/>
</g>
<!-- vz&#45;&gt;ft -->
<g id="edge46" class="edge">
<title>vz&#45;&gt;ft</title>
<path fill="none" stroke="black" d="M1052.1,-787.48C1048.13,-779.77 1043.37,-770.5 1038.94,-761.9"/>
<polygon fill="black" stroke="black" points="1042.17,-760.53 1034.49,-753.23 1035.95,-763.73 1042.17,-760.53"/>
</g>
<!-- mm -->
<g id="node22" class="node">
<title>mm</title>
<polygon fill="none" stroke="black" points="172.53,-228.44 205,-216 237.47,-228.44 237.44,-248.56 172.56,-248.56 172.53,-228.44"/>
<text text-anchor="middle" x="205" y="-228.95" font-family="Times,serif" font-size="14.00">mm</text>
</g>
<!-- mm&#45;&gt;rr -->
<g id="edge48" class="edge">
<title>mm&#45;&gt;rr</title>
<path fill="none" stroke="black" d="M222.87,-249.05C250.39,-272.41 300,-322.13 300,-377 300,-734.78 300,-734.78 300,-734.78 300,-775.61 285.16,-820.85 274.03,-849.06"/>
<polygon fill="black" stroke="black" points="270.8,-847.71 270.26,-858.29 277.28,-850.36 270.8,-847.71"/>
</g>
<!-- jr -->
<g id="node36" class="node">
<title>jr</title>
<polygon fill="none" stroke="black" points="178,-156.44 205,-144 232,-156.44 231.97,-176.56 178.03,-176.56 178,-156.44"/>
<text text-anchor="middle" x="205" y="-156.95" font-family="Times,serif" font-size="14.00">jr</text>
</g>
<!-- mm&#45;&gt;jr -->
<g id="edge47" class="edge">
<title>mm&#45;&gt;jr</title>
<path fill="none" stroke="black" d="M205,-215.7C205,-207.36 205,-197.22 205,-188.06"/>
<polygon fill="black" stroke="black" points="208.5,-188.34 205,-178.34 201.5,-188.34 208.5,-188.34"/>
</g>
<!-- vg&#45;&gt;mm -->
<g id="edge49" class="edge">
<title>vg&#45;&gt;mm</title>
<path fill="none" stroke="black" d="M143.22,-293.44C153.69,-283.53 169.07,-268.99 181.86,-256.89"/>
<polygon fill="black" stroke="black" points="184.25,-259.44 189.11,-250.03 179.44,-254.36 184.25,-259.44"/>
</g>
<!-- cd&#45;&gt;rr -->
<g id="edge51" class="edge">
<title>cd&#45;&gt;rr</title>
<path fill="none" stroke="black" d="M314.85,-936.59C306.4,-927.35 294.52,-914.36 284.16,-903.03"/>
<polygon fill="black" stroke="black" points="286.97,-900.91 277.64,-895.89 281.81,-905.64 286.97,-900.91"/>
</g>
<!-- cd&#45;&gt;tc -->
<g id="edge50" class="edge">
<title>cd&#45;&gt;tc</title>
<path fill="none" stroke="black" d="M332.79,-934.39C344.24,-910.13 367.49,-860.85 381.51,-831.14"/>
<polygon fill="black" stroke="black" points="384.64,-832.7 385.74,-822.17 378.31,-829.72 384.64,-832.7"/>
</g>
<!-- bq&#45;&gt;ft -->
<g id="edge52" class="edge">
<title>bq&#45;&gt;ft</title>
<path fill="none" stroke="black" d="M1115.17,-793.22C1098.13,-782.18 1072.19,-765.37 1052.51,-752.61"/>
<polygon fill="black" stroke="black" points="1054.43,-749.69 1044.13,-747.18 1050.62,-755.56 1054.43,-749.69"/>
</g>
<!-- xg -->
<g id="node26" class="node">
<title>xg</title>
<polygon fill="none" stroke="black" points="1311,-372.44 1338,-360 1365,-372.44 1364.97,-392.56 1311.03,-392.56 1311,-372.44"/>
<text text-anchor="middle" x="1338" y="-372.95" font-family="Times,serif" font-size="14.00">xg</text>
</g>
<!-- xg&#45;&gt;jz -->
<g id="edge54" class="edge">
<title>xg&#45;&gt;jz</title>
<path fill="none" stroke="black" d="M1324.77,-393.06C1303.49,-417.21 1264,-469.01 1264,-521 1264,-734.78 1264,-734.78 1264,-734.78 1264,-782.12 1279.85,-793.72 1308,-831.78 1314.98,-841.23 1324.24,-850.12 1332.94,-857.47"/>
<polygon fill="black" stroke="black" points="1330.54,-860.03 1340.52,-863.58 1334.93,-854.58 1330.54,-860.03"/>
</g>
<!-- pb -->
<g id="node29" class="node">
<title>pb</title>
<polygon fill="none" stroke="black" points="1370,-300.44 1397,-288 1424,-300.44 1423.97,-320.56 1370.03,-320.56 1370,-300.44"/>
<text text-anchor="middle" x="1397" y="-300.95" font-family="Times,serif" font-size="14.00">pb</text>
</g>
<!-- xg&#45;&gt;pb -->
<g id="edge53" class="edge">
<title>xg&#45;&gt;pb</title>
<path fill="none" stroke="black" d="M1348.55,-364.49C1356.71,-354.8 1368.22,-341.14 1377.98,-329.57"/>
<polygon fill="black" stroke="black" points="1380.59,-331.9 1384.35,-322 1375.23,-327.39 1380.59,-331.9"/>
</g>
<!-- xx&#45;&gt;zd -->
<g id="edge55" class="edge">
<title>xx&#45;&gt;zd</title>
<path fill="none" stroke="black" d="M1917.56,-717.9C1911.41,-701.11 1901.33,-673.54 1894.01,-653.52"/>
<polygon fill="black" stroke="black" points="1897.31,-652.36 1890.59,-644.17 1890.74,-654.77 1897.31,-652.36"/>
</g>
<!-- ls&#45;&gt;pq -->
<g id="edge57" class="edge">
<title>ls&#45;&gt;pq</title>
<path fill="none" stroke="black" d="M685.36,-933.94C684.4,-926.24 684.06,-916.56 684.35,-907.47"/>
<polygon fill="black" stroke="black" points="687.84,-907.79 684.99,-897.59 680.85,-907.34 687.84,-907.79"/>
</g>
<!-- ls&#45;&gt;tb -->
<g id="edge56" class="edge">
<title>ls&#45;&gt;tb</title>
<path fill="none" stroke="black" d="M678.72,-937.16C653.55,-913.33 595.73,-858.59 563.59,-828.17"/>
<polygon fill="black" stroke="black" points="566.4,-826.01 556.73,-821.67 561.59,-831.09 566.4,-826.01"/>
</g>
<!-- pb&#45;&gt;jz -->
<g id="edge58" class="edge">
<title>pb&#45;&gt;jz</title>
<path fill="none" stroke="black" d="M1414.87,-321.05C1442.39,-344.41 1492,-394.13 1492,-449 1492,-734.78 1492,-734.78 1492,-734.78 1492,-794.81 1427.91,-839.92 1388.71,-861.91"/>
<polygon fill="black" stroke="black" points="1387.09,-858.81 1379.96,-866.64 1390.42,-864.96 1387.09,-858.81"/>
</g>
<!-- rz -->
<g id="node52" class="node">
<title>rz</title>
<polygon fill="none" stroke="black" points="1370,-228.44 1397,-216 1424,-228.44 1423.97,-248.56 1370.03,-248.56 1370,-228.44"/>
<text text-anchor="middle" x="1397" y="-228.95" font-family="Times,serif" font-size="14.00">rz</text>
</g>
<!-- pb&#45;&gt;rz -->
<g id="edge59" class="edge">
<title>pb&#45;&gt;rz</title>
<path fill="none" stroke="black" d="M1397,-287.7C1397,-279.36 1397,-269.22 1397,-260.06"/>
<polygon fill="black" stroke="black" points="1400.5,-260.34 1397,-250.34 1393.5,-260.34 1400.5,-260.34"/>
</g>
<!-- vp -->
<g id="node49" class="node">
<title>vp</title>
<polygon fill="none" stroke="black" points="180,-728.22 207,-715.78 234,-728.22 233.97,-748.35 180.03,-748.35 180,-728.22"/>
<text text-anchor="middle" x="207" y="-728.73" font-family="Times,serif" font-size="14.00">vp</text>
</g>
<!-- tc&#45;&gt;vp -->
<g id="edge60" class="edge">
<title>tc&#45;&gt;vp</title>
<path fill="none" stroke="black" d="M372.38,-797.02C341.61,-785.44 283.15,-763.44 244.62,-748.94"/>
<polygon fill="black" stroke="black" points="246.33,-745.85 235.74,-745.6 243.87,-752.4 246.33,-745.85"/>
</g>
<!-- ck -->
<g id="node46" class="node">
<title>ck</title>
<polygon fill="none" stroke="black" points="104,-372.44 131,-360 158,-372.44 157.97,-392.56 104.03,-392.56 104,-372.44"/>
<text text-anchor="middle" x="131" y="-372.95" font-family="Times,serif" font-size="14.00">ck</text>
</g>
<!-- kh&#45;&gt;ck -->
<g id="edge61" class="edge">
<title>kh&#45;&gt;ck</title>
<path fill="none" stroke="black" d="M145.78,-433.46C143.39,-424.66 140.35,-413.46 137.65,-403.5"/>
<polygon fill="black" stroke="black" points="141.09,-402.8 135.09,-394.06 134.33,-404.63 141.09,-402.8"/>
</g>
<!-- lp&#45;&gt;xx -->
<g id="edge62" class="edge">
<title>lp&#45;&gt;xx</title>
<path fill="none" stroke="black" d="M2088.38,-797.02C2057.61,-785.44 1999.15,-763.44 1960.62,-748.94"/>
<polygon fill="black" stroke="black" points="1962.33,-745.85 1951.74,-745.6 1959.87,-752.4 1962.33,-745.85"/>
</g>
<!-- tb&#45;&gt;ss -->
<g id="edge63" class="edge">
<title>tb&#45;&gt;ss</title>
<path fill="none" stroke="black" d="M553.55,-793.22C564.41,-783.22 580.4,-768.49 593.61,-756.32"/>
<polygon fill="black" stroke="black" points="595.71,-759.15 600.7,-749.8 590.97,-754 595.71,-759.15"/>
</g>
<!-- qk -->
<g id="node34" class="node">
<title>qk</title>
<polygon fill="none" stroke="black" points="1311,-444.44 1338,-432 1365,-444.44 1364.97,-464.56 1311.03,-464.56 1311,-444.44"/>
<text text-anchor="middle" x="1338" y="-444.95" font-family="Times,serif" font-size="14.00">qk</text>
</g>
<!-- qk&#45;&gt;jz -->
<g id="edge64" class="edge">
<title>qk&#45;&gt;jz</title>
<path fill="none" stroke="black" d="M1332.92,-464.78C1329.18,-475.38 1324.2,-490.46 1321,-504 1308.3,-557.79 1302,-571.62 1302,-626.89 1302,-734.78 1302,-734.78 1302,-734.78 1302,-777.18 1324.16,-821.91 1340.84,-849.58"/>
<polygon fill="black" stroke="black" points="1337.85,-851.4 1346.11,-858.03 1343.79,-847.69 1337.85,-851.4"/>
</g>
<!-- qk&#45;&gt;xg -->
<g id="edge65" class="edge">
<title>qk&#45;&gt;xg</title>
<path fill="none" stroke="black" d="M1338,-431.7C1338,-423.36 1338,-413.22 1338,-404.06"/>
<polygon fill="black" stroke="black" points="1341.5,-404.34 1338,-394.34 1334.5,-404.34 1341.5,-404.34"/>
</g>
<!-- xz&#45;&gt;dm -->
<g id="edge66" class="edge">
<title>xz&#45;&gt;dm</title>
<path fill="none" stroke="black" d="M1602.16,-797.02C1571.47,-785.6 1513.54,-764.03 1474.6,-749.53"/>
<polygon fill="black" stroke="black" points="1475.92,-746.29 1465.33,-746.08 1473.48,-752.85 1475.92,-746.29"/>
</g>
<!-- jr&#45;&gt;rr -->
<g id="edge68" class="edge">
<title>jr&#45;&gt;rr</title>
<path fill="none" stroke="black" d="M177.78,-168.46C122.01,-181.4 0,-219.49 0,-305 0,-734.78 0,-734.78 0,-734.78 0,-782.5 8.5,-802.28 46,-831.78 73.55,-853.47 172.16,-867.15 226.1,-873.19"/>
<polygon fill="black" stroke="black" points="225.39,-876.63 235.71,-874.23 226.14,-869.67 225.39,-876.63"/>
</g>
<!-- rb -->
<g id="node40" class="node">
<title>rb</title>
<polygon fill="none" stroke="black" points="245,-84.44 272,-72 299,-84.44 298.97,-104.56 245.03,-104.56 245,-84.44"/>
<text text-anchor="middle" x="272" y="-84.95" font-family="Times,serif" font-size="14.00">rb</text>
</g>
<!-- jr&#45;&gt;rb -->
<g id="edge67" class="edge">
<title>jr&#45;&gt;rb</title>
<path fill="none" stroke="black" d="M216.37,-149.13C225.86,-139.21 239.65,-124.8 251.12,-112.82"/>
<polygon fill="black" stroke="black" points="253.54,-115.35 257.92,-105.71 248.48,-110.51 253.54,-115.35"/>
</g>
<!-- mb&#45;&gt;hv -->
<g id="edge69" class="edge">
<title>mb&#45;&gt;hv</title>
<path fill="none" stroke="black" d="M655.97,-610.66C659.05,-593.83 663.89,-567.32 667.45,-547.86"/>
<polygon fill="black" stroke="black" points="670.85,-548.75 669.2,-538.28 663.96,-547.49 670.85,-548.75"/>
</g>
<!-- mb&#45;&gt;pq -->
<g id="edge70" class="edge">
<title>mb&#45;&gt;pq</title>
<path fill="none" stroke="black" d="M655.14,-642.83C661.17,-682.18 678.41,-794.66 686.59,-848.02"/>
<polygon fill="black" stroke="black" points="683.12,-848.5 688.1,-857.86 690.04,-847.44 683.12,-848.5"/>
</g>
<!-- qh&#45;&gt;ft -->
<g id="edge71" class="edge">
<title>qh&#45;&gt;ft</title>
<path fill="none" stroke="black" d="M997.9,-787.48C1001.87,-779.77 1006.63,-770.5 1011.06,-761.9"/>
<polygon fill="black" stroke="black" points="1014.05,-763.73 1015.51,-753.23 1007.83,-760.53 1014.05,-763.73"/>
</g>
<!-- lt&#45;&gt;ft -->
<g id="edge72" class="edge">
<title>lt&#45;&gt;ft</title>
<path fill="none" stroke="black" d="M934.83,-793.22C951.87,-782.18 977.81,-765.37 997.49,-752.61"/>
<polygon fill="black" stroke="black" points="999.38,-755.56 1005.87,-747.18 995.57,-749.69 999.38,-755.56"/>
</g>
<!-- rb&#45;&gt;rr -->
<g id="edge73" class="edge">
<title>rb&#45;&gt;rr</title>
<path fill="none" stroke="black" d="M283.5,-104.92C302.41,-129.27 338,-181.89 338,-233 338,-734.78 338,-734.78 338,-734.78 338,-780.92 324.69,-792.19 301,-831.78 296.47,-839.35 290.64,-846.86 284.87,-853.52"/>
<polygon fill="black" stroke="black" points="282.31,-851.13 278.18,-860.88 287.5,-855.83 282.31,-851.13"/>
</g>
<!-- pc&#45;&gt;sl -->
<g id="edge75" class="edge">
<title>pc&#45;&gt;sl</title>
<path fill="none" stroke="black" d="M1962.32,-248.95C1980.95,-273.34 2016,-326.03 2016,-377 2016,-734.78 2016,-734.78 2016,-734.78 2016,-785.95 1993.02,-798.69 1954,-831.78 1933.26,-849.37 1904.62,-861.03 1882.49,-868.06"/>
<polygon fill="black" stroke="black" points="1881.61,-864.67 1873.04,-870.89 1883.62,-871.38 1881.61,-864.67"/>
</g>
<!-- hr -->
<g id="node42" class="node">
<title>hr</title>
<polygon fill="none" stroke="black" points="1924,-156.44 1951,-144 1978,-156.44 1977.97,-176.56 1924.03,-176.56 1924,-156.44"/>
<text text-anchor="middle" x="1951" y="-156.95" font-family="Times,serif" font-size="14.00">hr</text>
</g>
<!-- pc&#45;&gt;hr -->
<g id="edge74" class="edge">
<title>pc&#45;&gt;hr</title>
<path fill="none" stroke="black" d="M1951,-215.7C1951,-207.36 1951,-197.22 1951,-188.06"/>
<polygon fill="black" stroke="black" points="1954.5,-188.34 1951,-178.34 1947.5,-188.34 1954.5,-188.34"/>
</g>
<!-- hr&#45;&gt;sl -->
<g id="edge77" class="edge">
<title>hr&#45;&gt;sl</title>
<path fill="none" stroke="black" d="M1970.37,-176.71C2000.21,-199.59 2054,-248.66 2054,-305 2054,-734.78 2054,-734.78 2054,-734.78 2054,-786.19 2031.9,-800.64 1991,-831.78 1959.71,-855.61 1915.49,-867.01 1884.74,-872.34"/>
<polygon fill="black" stroke="black" points="1884.49,-868.83 1875.16,-873.86 1885.59,-875.75 1884.49,-868.83"/>
</g>
<!-- hr&#45;&gt;vf -->
<g id="edge76" class="edge">
<title>hr&#45;&gt;vf</title>
<path fill="none" stroke="black" d="M1928.9,-153.9C1891.88,-142.02 1816.9,-117.94 1771.2,-103.27"/>
<polygon fill="black" stroke="black" points="1772.28,-99.94 1761.69,-100.21 1770.14,-106.6 1772.28,-99.94"/>
</g>
<!-- gd&#45;&gt;sl -->
<g id="edge79" class="edge">
<title>gd&#45;&gt;sl</title>
<path fill="none" stroke="black" d="M1855.01,-464.7C1847.17,-475.02 1836.85,-489.77 1830,-504 1805.22,-555.52 1792,-569.72 1792,-626.89 1792,-734.78 1792,-734.78 1792,-734.78 1792,-777.18 1814.16,-821.91 1830.84,-849.58"/>
<polygon fill="black" stroke="black" points="1827.85,-851.4 1836.11,-858.03 1833.79,-847.69 1827.85,-851.4"/>
</g>
<!-- gd&#45;&gt;bs -->
<g id="edge78" class="edge">
<title>gd&#45;&gt;bs</title>
<path fill="none" stroke="black" d="M1873.51,-435.17C1878.5,-425.97 1885.2,-413.63 1891.04,-402.87"/>
<polygon fill="black" stroke="black" points="1894.09,-404.59 1895.79,-394.13 1887.94,-401.25 1894.09,-404.59"/>
</g>
<!-- xm&#45;&gt;dp -->
<g id="edge80" class="edge">
<title>xm&#45;&gt;dp</title>
<path fill="none" stroke="black" d="M710,-359.7C710,-351.36 710,-341.22 710,-332.06"/>
<polygon fill="black" stroke="black" points="713.5,-332.34 710,-322.34 706.5,-332.34 713.5,-332.34"/>
</g>
<!-- xm&#45;&gt;pq -->
<g id="edge81" class="edge">
<title>xm&#45;&gt;pq</title>
<path fill="none" stroke="black" d="M716.27,-392.78C727.07,-417.78 748,-472.51 748,-521 748,-734.78 748,-734.78 748,-734.78 748,-777.18 725.84,-821.91 709.16,-849.58"/>
<polygon fill="black" stroke="black" points="706.21,-847.69 703.89,-858.03 712.15,-851.4 706.21,-847.69"/>
</g>
<!-- ct&#45;&gt;jz -->
<g id="edge82" class="edge">
<title>ct&#45;&gt;jz</title>
<path fill="none" stroke="black" d="M1392.98,-642.83C1387.26,-682.18 1370.93,-794.66 1363.18,-848.02"/>
<polygon fill="black" stroke="black" points="1359.72,-847.46 1361.75,-857.85 1366.65,-848.46 1359.72,-847.46"/>
</g>
<!-- rj -->
<g id="node58" class="node">
<title>rj</title>
<polygon fill="none" stroke="black" points="1330,-516.44 1357,-504 1384,-516.44 1383.97,-536.56 1330.03,-536.56 1330,-516.44"/>
<text text-anchor="middle" x="1357" y="-516.95" font-family="Times,serif" font-size="14.00">rj</text>
</g>
<!-- ct&#45;&gt;rj -->
<g id="edge83" class="edge">
<title>ct&#45;&gt;rj</title>
<path fill="none" stroke="black" d="M1389.56,-612.01C1383.41,-595.22 1373.33,-567.64 1366.01,-547.63"/>
<polygon fill="black" stroke="black" points="1369.31,-546.47 1362.59,-538.28 1362.74,-548.88 1369.31,-546.47"/>
</g>
<!-- ck&#45;&gt;rr -->
<g id="edge85" class="edge">
<title>ck&#45;&gt;rr</title>
<path fill="none" stroke="black" d="M121.67,-392.82C105.98,-417.45 76,-471.03 76,-521 76,-734.78 76,-734.78 76,-734.78 76,-810.67 175.03,-851.42 228.57,-867.9"/>
<polygon fill="black" stroke="black" points="227.53,-871.24 238.11,-870.71 229.51,-864.53 227.53,-871.24"/>
</g>
<!-- ck&#45;&gt;vg -->
<g id="edge84" class="edge">
<title>ck&#45;&gt;vg</title>
<path fill="none" stroke="black" d="M131,-359.7C131,-351.36 131,-341.22 131,-332.06"/>
<polygon fill="black" stroke="black" points="134.5,-332.34 131,-322.34 127.5,-332.34 134.5,-332.34"/>
</g>
<!-- cr -->
<g id="node47" class="node">
<title>cr</title>
<polygon fill="none" stroke="black" points="1438,-156.44 1465,-144 1492,-156.44 1491.97,-176.56 1438.03,-176.56 1438,-156.44"/>
<text text-anchor="middle" x="1465" y="-156.95" font-family="Times,serif" font-size="14.00">cr</text>
</g>
<!-- cr&#45;&gt;rf -->
<g id="edge87" class="edge">
<title>cr&#45;&gt;rf</title>
<path fill="none" stroke="black" d="M1465,-143.7C1465,-135.36 1465,-125.22 1465,-116.06"/>
<polygon fill="black" stroke="black" points="1468.5,-116.34 1465,-106.34 1461.5,-116.34 1468.5,-116.34"/>
</g>
<!-- cr&#45;&gt;jz -->
<g id="edge86" class="edge">
<title>cr&#45;&gt;jz</title>
<path fill="none" stroke="black" d="M1476.32,-176.95C1494.95,-201.34 1530,-254.03 1530,-305 1530,-734.78 1530,-734.78 1530,-734.78 1530,-785.71 1507.99,-799.02 1469,-831.78 1446.87,-850.38 1416.03,-862.1 1392.63,-868.9"/>
<polygon fill="black" stroke="black" points="1392,-865.44 1383.27,-871.45 1393.84,-872.19 1392,-865.44"/>
</g>
<!-- bn&#45;&gt;jz -->
<g id="edge89" class="edge">
<title>bn&#45;&gt;jz</title>
<path fill="none" stroke="black" d="M1353.36,-933.94C1352.4,-926.24 1352.06,-916.56 1352.35,-907.47"/>
<polygon fill="black" stroke="black" points="1355.84,-907.79 1352.99,-897.59 1348.85,-907.34 1355.84,-907.79"/>
</g>
<!-- bn&#45;&gt;xz -->
<g id="edge88" class="edge">
<title>bn&#45;&gt;xz</title>
<path fill="none" stroke="black" d="M1377.13,-939.77C1415.4,-920.64 1507.06,-874.23 1582,-831.78 1584.86,-830.17 1587.8,-828.45 1590.75,-826.72"/>
<polygon fill="black" stroke="black" points="1592.53,-829.73 1599.3,-821.58 1588.93,-823.73 1592.53,-829.73"/>
</g>
<!-- vp&#45;&gt;rr -->
<g id="edge90" class="edge">
<title>vp&#45;&gt;rr</title>
<path fill="none" stroke="black" d="M212.32,-748.51C221.24,-771.55 239.39,-818.42 251.11,-848.67"/>
<polygon fill="black" stroke="black" points="247.83,-849.9 254.71,-857.96 254.36,-847.37 247.83,-849.9"/>
</g>
<!-- vp&#45;&gt;jb -->
<g id="edge91" class="edge">
<title>vp&#45;&gt;jb</title>
<path fill="none" stroke="black" d="M201.56,-717.9C195.41,-701.11 185.33,-673.54 178.01,-653.52"/>
<polygon fill="black" stroke="black" points="181.31,-652.36 174.59,-644.17 174.74,-654.77 181.31,-652.36"/>
</g>
<!-- hl -->
<g id="node50" class="node">
<title>hl</title>
<polygon fill="none" stroke="black" points="761,-84.44 788,-72 815,-84.44 814.97,-104.56 761.03,-104.56 761,-84.44"/>
<text text-anchor="middle" x="788" y="-84.95" font-family="Times,serif" font-size="14.00">hl</text>
</g>
<!-- hl&#45;&gt;pq -->
<g id="edge92" class="edge">
<title>hl&#45;&gt;pq</title>
<path fill="none" stroke="black" d="M801.23,-105.06C822.51,-129.21 862,-181.01 862,-233 862,-734.78 862,-734.78 862,-734.78 862,-784.34 844.5,-799.38 807,-831.78 783.72,-851.9 750.43,-863.56 725.48,-869.95"/>
<polygon fill="black" stroke="black" points="724.72,-866.53 715.8,-872.25 726.34,-873.34 724.72,-866.53"/>
</g>
<!-- vj -->
<g id="node55" class="node">
<title>vj</title>
<polygon fill="none" stroke="black" points="591,-12.44 618,0 645,-12.44 644.97,-32.56 591.03,-32.56 591,-12.44"/>
<text text-anchor="middle" x="618" y="-12.95" font-family="Times,serif" font-size="14.00">vj</text>
</g>
<!-- hl&#45;&gt;vj -->
<g id="edge93" class="edge">
<title>hl&#45;&gt;vj</title>
<path fill="none" stroke="black" d="M768.17,-80.83C740.62,-69.49 690.27,-48.76 655.51,-34.44"/>
<polygon fill="black" stroke="black" points="657.24,-31.37 646.67,-30.8 654.58,-37.85 657.24,-31.37"/>
</g>
<!-- ts&#45;&gt;sl -->
<g id="edge95" class="edge">
<title>ts&#45;&gt;sl</title>
<path fill="none" stroke="black" d="M1843.36,-933.94C1842.4,-926.24 1842.06,-916.56 1842.35,-907.47"/>
<polygon fill="black" stroke="black" points="1845.84,-907.79 1842.99,-897.59 1838.85,-907.34 1845.84,-907.79"/>
</g>
<!-- ts&#45;&gt;lp -->
<g id="edge94" class="edge">
<title>ts&#45;&gt;lp</title>
<path fill="none" stroke="black" d="M1867.07,-939.57C1904.78,-920.25 1994.45,-873.81 2068,-831.78 2070.85,-830.16 2073.79,-828.44 2076.73,-826.69"/>
<polygon fill="black" stroke="black" points="2078.52,-829.7 2085.28,-821.55 2074.91,-823.71 2078.52,-829.7"/>
</g>
<!-- rz&#45;&gt;jz -->
<g id="edge96" class="edge">
<title>rz&#45;&gt;jz</title>
<path fill="none" stroke="black" d="M1369.53,-243.56C1321.19,-260.53 1226,-303.3 1226,-377 1226,-734.78 1226,-734.78 1226,-734.78 1226,-782.5 1238.85,-797.47 1272,-831.78 1287.07,-847.38 1308.71,-858.61 1326.64,-865.94"/>
<polygon fill="black" stroke="black" points="1325.23,-869.15 1335.82,-869.47 1327.75,-862.62 1325.23,-869.15"/>
</g>
<!-- rz&#45;&gt;cr -->
<g id="edge97" class="edge">
<title>rz&#45;&gt;cr</title>
<path fill="none" stroke="black" d="M1408.54,-221.13C1418.17,-211.21 1432.16,-196.8 1443.81,-184.82"/>
<polygon fill="black" stroke="black" points="1446.26,-187.31 1450.72,-177.7 1441.24,-182.43 1446.26,-187.31"/>
</g>
<!-- tr -->
<g id="node56" class="node">
<title>tr</title>
<polygon fill="none" stroke="black" points="761,-156.44 788,-144 815,-156.44 814.97,-176.56 761.03,-176.56 761,-156.44"/>
<text text-anchor="middle" x="788" y="-156.95" font-family="Times,serif" font-size="14.00">tr</text>
</g>
<!-- ql&#45;&gt;tr -->
<g id="edge98" class="edge">
<title>ql&#45;&gt;tr</title>
<path fill="none" stroke="black" d="M773.22,-217.46C775.61,-208.66 778.65,-197.46 781.35,-187.5"/>
<polygon fill="black" stroke="black" points="784.67,-188.63 783.91,-178.06 777.91,-186.8 784.67,-188.63"/>
</g>
<!-- xk&#45;&gt;jz -->
<g id="edge99" class="edge">
<title>xk&#45;&gt;jz</title>
<path fill="none" stroke="black" d="M1298.74,-31.71C1258.52,-52.56 1188,-98.09 1188,-161 1188,-734.78 1188,-734.78 1188,-734.78 1188,-782.12 1197.13,-799.77 1232,-831.78 1257.33,-855.04 1295.44,-866.42 1323.31,-871.9"/>
<polygon fill="black" stroke="black" points="1322.61,-875.33 1333.07,-873.64 1323.84,-868.44 1322.61,-875.33"/>
</g>
<!-- vj&#45;&gt;pq -->
<g id="edge100" class="edge">
<title>vj&#45;&gt;pq</title>
<path fill="none" stroke="black" d="M590.69,-27.61C542.63,-44.66 448,-87.55 448,-161 448,-734.78 448,-734.78 448,-734.78 448,-780.32 446.98,-801.52 481,-831.78 506.32,-854.3 601.54,-867.53 654.64,-873.31"/>
<polygon fill="black" stroke="black" points="654.1,-876.77 664.42,-874.33 654.84,-869.81 654.1,-876.77"/>
</g>
<!-- tr&#45;&gt;pq -->
<g id="edge101" class="edge">
<title>tr&#45;&gt;pq</title>
<path fill="none" stroke="black" d="M793.94,-176.81C804.17,-201.86 824,-256.68 824,-305 824,-734.78 824,-734.78 824,-734.78 824,-783.49 807.13,-797.04 773,-831.78 758.81,-846.23 738.99,-857.28 722.39,-864.81"/>
<polygon fill="black" stroke="black" points="721.24,-861.5 713.43,-868.66 724,-867.93 721.24,-861.5"/>
</g>
<!-- tr&#45;&gt;hl -->
<g id="edge102" class="edge">
<title>tr&#45;&gt;hl</title>
<path fill="none" stroke="black" d="M788,-143.7C788,-135.36 788,-125.22 788,-116.06"/>
<polygon fill="black" stroke="black" points="791.5,-116.34 788,-106.34 784.5,-116.34 791.5,-116.34"/>
</g>
<!-- nc&#45;&gt;sl -->
<g id="edge107" class="edge">
<title>nc&#45;&gt;sl</title>
<path fill="none" stroke="black" d="M1700.54,-32.94C1692.87,-58.2 1678,-113.32 1678,-161 1678,-734.78 1678,-734.78 1678,-734.78 1678,-782.12 1687.13,-799.77 1722,-831.78 1747.33,-855.04 1785.44,-866.42 1813.31,-871.9"/>
<polygon fill="black" stroke="black" points="1812.61,-875.33 1823.07,-873.64 1813.84,-868.44 1812.61,-875.33"/>
</g>
<!-- rj&#45;&gt;jz -->
<g id="edge108" class="edge">
<title>rj&#45;&gt;jz</title>
<path fill="none" stroke="black" d="M1357.08,-536.74C1357.37,-589.07 1358.43,-776.57 1358.84,-848.45"/>
<polygon fill="black" stroke="black" points="1355.34,-848.23 1358.89,-858.21 1362.34,-848.19 1355.34,-848.23"/>
</g>
<!-- rj&#45;&gt;qk -->
<g id="edge109" class="edge">
<title>rj&#45;&gt;qk</title>
<path fill="none" stroke="black" d="M1352.78,-505.46C1350.39,-496.66 1347.35,-485.46 1344.65,-475.5"/>
<polygon fill="black" stroke="black" points="1348.09,-474.8 1342.09,-466.06 1341.33,-476.63 1348.09,-474.8"/>
</g>
</g>
</svg>
